<svg width="70" height="70" viewBox="0 0 70 70" fill="none" xmlns="http://www.w3.org/2000/svg">
<rect width="70" height="70" rx="35" fill="#3E468F"/>
<path d="M37.5644 29.9436C37.752 29.4636 38.2932 29.2265 38.7732 29.4141C39.2532 29.6017 39.4903 30.1429 39.3028 30.6229L37.9684 34.938H35.9619L37.5644 29.9436V29.9436Z" fill="white"/>
<path d="M47.9006 34.938L46.5662 30.6229C46.3786 30.1429 46.6157 29.6017 47.0957 29.4141C47.5757 29.2265 48.117 29.4636 48.3045 29.9436L49.9071 34.938H47.9006Z" fill="white"/>
<path d="M26.5811 33.3227C26.9924 33.3227 27.3258 33.6561 27.3258 34.0673C27.3258 34.4786 26.9924 34.8119 26.5811 34.8119C25.7353 34.8119 24.9249 34.6669 24.1885 34.4226C23.3798 34.1544 22.6644 33.7638 22.0926 33.3125C21.63 32.9473 21.2559 32.5385 20.9954 32.1167C20.7095 31.654 20.5532 31.1711 20.5532 30.7004C20.5532 30.2892 20.8866 29.9558 21.2978 29.9558C22.1441 29.9558 22.8668 30.1184 23.1885 30.6391C23.3597 30.9163 24.5668 30.7478 24.8926 31.005C25.3351 31.3542 25.2941 31.5616 25.9337 31.7738C26.5161 31.967 25.888 33.3227 26.5811 33.3227L26.5811 33.3227Z" fill="white"/>
<path d="M21.6793 32.3895C21.954 32.6947 21.9292 33.1648 21.6241 33.4395C21.1625 33.8541 20.6039 34.2093 19.9799 34.4541C19.4049 34.6796 18.776 34.812 18.1176 34.812C17.7064 34.812 18.4072 34.4786 18.4072 34.0674C18.4072 33.6561 18.3527 32.4889 18.764 32.4889C19.2324 32.4889 19.252 31.2706 19.6586 31.1111C20.109 30.9344 21.61 32.3125 21.6793 32.3895H21.6793Z" fill="white"/>
<path d="M22.8257 29.6277C24.1895 29.6277 25.4243 30.1805 26.318 31.0743C27.2118 31.9681 27.7647 33.2029 27.7647 34.5667C27.7647 35.9504 27.1783 37.5268 26.2427 38.7016C25.3641 39.805 24.1682 40.5784 22.8257 40.5784C21.4832 40.5784 20.2873 39.805 19.4087 38.7016C18.4732 37.5268 17.8867 35.9504 17.8867 34.5667C17.8867 33.2029 18.4396 31.9681 19.3334 31.0743C20.2272 30.1805 21.4619 29.6277 22.8257 29.6277H22.8257ZM25.2651 32.1273C24.6409 31.503 23.7783 31.1169 22.8257 31.1169C21.873 31.1169 21.0105 31.503 20.3863 32.1273C19.7621 32.7515 19.3759 33.614 19.3759 34.5667C19.3759 35.6294 19.8369 36.8533 20.5722 37.7766C21.1866 38.5483 21.9819 39.0892 22.8257 39.0892C23.6695 39.0892 24.4648 38.5483 25.0793 37.7766C25.8145 36.8533 26.2755 35.6294 26.2755 34.5667C26.2755 33.614 25.8893 32.7515 25.2651 32.1273Z" fill="white"/>
<path fill-rule="evenodd" clip-rule="evenodd" d="M24.7016 41.0432L24.6777 41.0859C24.6579 41.1212 24.6427 41.1588 24.632 41.1978C24.2723 42.5138 24.6918 42.4342 22.8635 42.4342C21.0402 42.4342 21.3747 42.5223 21.0196 41.2056C20.9733 41.0341 20.8432 40.8983 20.6706 40.8511C19.8835 40.6355 18.6873 41.2397 18.0275 41.6263C17.7425 41.7934 17.464 41.9723 17.1912 42.1586C16.6907 42.5004 16.2032 42.8702 15.7396 43.2605C15.4218 43.528 15.0666 43.8369 14.796 44.1526C14.197 44.8517 13.7103 45.6355 13.3797 46.4962C13.0763 47.286 12.9152 48.1096 12.8979 48.9533L12.8982 49.1047C12.8983 49.1352 12.9009 49.1657 12.9066 49.1956L13.7858 53.832C13.8569 54.2069 13.9557 54.6446 14.2209 54.9344C14.5027 55.2423 14.8873 55.425 15.307 55.425C15.7267 55.425 16.1113 55.2422 16.3931 54.9344C16.656 54.6472 16.8061 54.2746 16.8233 53.8875L16.8232 53.8127C16.8232 53.7822 16.8205 53.7518 16.8148 53.7218L15.9325 49.069L15.9329 49.0439C15.9419 48.3779 16.1016 47.7379 16.4594 47.1719C16.5623 47.0092 16.6793 46.8558 16.8078 46.7125L17.2221 46.2509L17.2406 46.8709C17.277 48.093 17.5203 49.3035 17.7572 50.4994C18.1843 52.6554 18.5467 54.6708 18.1155 56.8694C18.0629 57.1376 18.2388 57.3983 18.507 57.4506C18.6312 57.4715 18.8278 57.4683 18.9571 57.4718C19.2888 57.4806 19.621 57.4848 19.9529 57.4884C20.9037 57.4986 21.8549 57.5005 22.8058 57.5C23.7618 57.4995 24.718 57.4962 25.6739 57.4864C26.0059 57.4829 26.338 57.479 26.6699 57.4715C26.8037 57.4685 26.9865 57.4724 27.1172 57.4543C27.3877 57.4158 27.5765 57.1653 27.5376 56.8946C27.2005 54.5461 27.5408 52.3574 27.9479 50.051C28.1344 48.9947 28.3338 47.9129 28.3853 46.8404L28.4138 46.2455L28.8162 46.6846C28.9547 46.8358 29.0803 46.9985 29.1899 47.1719C29.5603 47.7577 29.7764 48.3972 29.7159 49.0975L29.3253 53.6187C29.3236 53.638 29.322 53.6577 29.322 53.6771C29.322 54.0909 29.474 54.4934 29.7539 54.7991C30.0357 55.107 30.4203 55.2898 30.84 55.2898C31.2597 55.2898 31.6443 55.107 31.9261 54.7991C32.2011 54.4986 32.3241 54.0888 32.3586 53.6901L32.7497 49.1635C32.7513 49.1442 32.753 49.1245 32.753 49.1051C32.753 48.2083 32.5912 47.3333 32.2697 46.4962C31.9391 45.6355 31.4523 44.8517 30.8534 44.1526C30.7582 44.0417 30.6346 43.9327 30.525 43.8362C30.3397 43.6732 30.1477 43.5167 29.9543 43.3636C29.4509 42.9652 28.9285 42.5843 28.3981 42.2228C27.9524 41.9191 27.4947 41.6242 27.0249 41.3592C26.6771 41.1631 26.2901 40.9597 25.9111 40.8321C25.5656 40.7157 25.1304 40.6422 24.8281 40.901C24.7792 40.9428 24.7368 40.9901 24.7016 41.0432H24.7016Z" fill="white"/>
<path d="M25.461 41.5963C25.7357 41.8999 25.7123 42.3688 25.4087 42.6434C25.2124 42.821 24.9471 42.8739 24.7097 42.8072H20.9414C20.81 42.8441 20.6702 42.8444 20.5381 42.8072H20.5379V42.8071C20.4314 42.777 20.3301 42.7227 20.2425 42.6434C19.9389 42.3688 19.9154 41.8999 20.1902 41.5963C20.1914 41.5949 20.6417 41.1108 20.8106 39.995C20.8716 39.5887 21.2507 39.3087 21.657 39.3697H23.9941C24.4005 39.3087 24.7795 39.5887 24.8405 39.995C25.0095 41.1108 25.4598 41.5949 25.461 41.5963H25.461Z" fill="white"/>
<path fill-rule="evenodd" clip-rule="evenodd" d="M57.1019 30.0611V13.4349C57.1019 12.9186 56.6833 12.5 56.1669 12.5H29.7016C29.1852 12.5 28.7666 12.9186 28.7666 13.4349V30.0611C28.7666 30.5775 29.1852 30.9961 29.7016 30.9961H37.1489H39.1554H46.7131H48.7196H56.1669C56.6833 30.9961 57.1019 30.5775 57.1019 30.0611ZM32.1827 17.5049H38.2453V19.3748H32.1827V17.5049ZM32.1827 20.7601H40.2463V22.63H32.1827V20.7601ZM32.1827 24.1213H42.1072V25.9912H32.1827V24.1213ZM43.3254 19.8926C43.3927 19.8926 43.4585 19.899 43.5222 19.9113L44.6876 18.5502C44.855 18.3546 45.1494 18.3317 45.345 18.4991C45.3936 18.5407 45.4316 18.5902 45.4586 18.6441L49.0289 25.0707L51.1132 17.4283C51.0882 17.4075 51.0642 17.3856 51.0412 17.3627C50.8534 17.1749 50.7372 16.9154 50.7372 16.629C50.7372 16.3441 50.8537 16.0849 51.0421 15.8961L51.0412 15.8952C51.229 15.7074 51.4884 15.5912 51.775 15.5912C52.0603 15.5912 52.3191 15.7074 52.5069 15.8951L52.5088 15.897C52.6965 16.0848 52.8128 16.3437 52.8128 16.629C52.8128 16.9155 52.6965 17.1749 52.5087 17.3627C52.4973 17.3741 52.4854 17.3849 52.4731 17.3949C52.3466 17.5103 52.192 17.5949 52.0214 17.6369L49.7574 25.9383C49.8578 25.9886 49.949 26.0547 50.0276 26.1333C50.2154 26.3211 50.3317 26.5806 50.3317 26.8671C50.3317 27.1536 50.2154 27.413 50.0276 27.6008C49.8398 27.7886 49.5804 27.9049 49.2939 27.9049C49.0073 27.9049 48.7479 27.7886 48.5601 27.6008C48.3723 27.413 48.256 27.1536 48.256 26.8671C48.256 26.5828 48.3705 26.3251 48.5557 26.1377L44.9601 19.6656L44.2613 20.4816C44.3266 20.6174 44.3632 20.7697 44.3632 20.9304C44.3632 21.2169 44.247 21.4764 44.0592 21.6642C43.8714 21.852 43.612 21.9682 43.3255 21.9682C43.0406 21.9682 42.7814 21.8517 42.5926 21.6633L42.5917 21.6642C42.4039 21.4764 42.2877 21.217 42.2877 20.9304C42.2877 20.6439 42.4039 20.3844 42.5917 20.1966C42.6031 20.1852 42.615 20.1745 42.6273 20.1645C42.8126 19.9956 43.0577 19.8926 43.3255 19.8926L43.3254 19.8926Z" fill="white"/>
</svg>
