<svg width="70" height="70" viewBox="0 0 70 70" fill="none" xmlns="http://www.w3.org/2000/svg">
<rect width="70" height="70" rx="35" fill="#3E468F"/>
<path d="M25.9639 37.0498H54.3459C54.7719 37.0498 55.1584 37.2234 55.4381 37.5031C55.7178 37.7827 55.8914 38.1693 55.8914 38.5953V55.1309C55.8914 55.5569 55.7178 55.9435 55.4381 56.2231C55.1584 56.5028 54.7719 56.6764 54.3459 56.6764H25.9639C25.5421 56.6764 25.1569 56.5029 24.8754 56.2231L24.8754 56.2231L24.8736 56.2213L24.8717 56.2195L24.8694 56.217C24.591 55.9357 24.4185 55.5515 24.4185 55.1309V38.5953C24.4185 38.1727 24.5927 37.7866 24.8736 37.5049L24.8717 37.5031C25.1513 37.2234 25.5379 37.0498 25.9639 37.0498L25.9639 37.0498Z" fill="white"/>
<path d="M46.6691 37.7311C46.6691 38.2485 46.2271 38.668 45.6819 38.668C45.1367 38.668 44.6947 38.2485 44.6947 37.7311V34.9982H42.9537L44.6003 33.7043C44.8461 33.5166 45.0564 33.3288 45.241 33.1421C45.5797 33.19 45.8883 33.3312 46.1294 33.5342C46.4624 33.8147 46.6691 34.2081 46.6691 34.6468V37.7311L46.6691 37.7311ZM41.2126 34.9982H40.8276L42.0241 33.8244L41.3503 34.8405C41.2926 34.8858 41.2466 34.9395 41.2126 34.9982V34.9982ZM39.2773 34.9982H38.955L40.7943 33.1243H40.8013L39.4331 34.8056C39.3643 34.8597 39.3122 34.9259 39.2773 34.9982L39.2773 34.9982ZM37.5941 34.9982H36.9851L38.7913 33.1243H38.9734L37.8025 34.5838C37.667 34.6903 37.596 34.8433 37.5941 34.9982L37.5941 34.9982ZM36.2146 34.9982H35.6155V37.7311C35.6155 38.2485 35.1735 38.668 34.6283 38.668C34.0831 38.668 33.6411 38.2485 33.6411 37.7311V34.6468C33.6411 34.2081 33.8479 33.8147 34.1809 33.5342C34.4811 33.2813 34.8863 33.1243 35.3237 33.1243H37.2602C36.6736 33.7241 36.235 34.1743 36.235 34.1743C35.9903 34.3665 35.9562 34.7107 36.1589 34.9426C36.1763 34.9626 36.1949 34.9812 36.2146 34.9982V34.9982Z" fill="white"/>
<path d="M29.3545 36.3965C29.3545 35.8837 29.7702 35.468 30.283 35.468C30.7957 35.468 31.2114 35.8837 31.2114 36.3965V37.5854C31.2114 38.0982 30.7957 38.5139 30.283 38.5139C29.7702 38.5139 29.3545 38.0982 29.3545 37.5854V36.3965Z" fill="white"/>
<path d="M49.0986 36.3965C49.0986 35.8837 49.5143 35.468 50.0271 35.468C50.5398 35.468 50.9555 35.8837 50.9555 36.3965V37.5854C50.9555 38.0982 50.5398 38.5139 50.0271 38.5139C49.5143 38.5139 49.0986 38.0982 49.0986 37.5854V36.3965Z" fill="white"/>
<path d="M40.9164 36.0373C40.8592 35.968 40.8125 35.8936 40.7762 35.8157L40.5288 36.0714C40.5141 36.0897 40.4979 36.1071 40.4801 36.1234L40.4799 36.1236L40.4751 36.128L40.4748 36.1282L40.4747 36.1282C40.4706 36.1319 40.4664 36.1355 40.4621 36.1391C40.2418 36.3211 39.9676 36.3969 39.7025 36.3719V36.3717C39.4467 36.3472 39.2007 36.2298 39.0203 36.0249C39.0059 36.0097 38.9926 35.9935 38.9803 35.9765C38.9473 35.9344 38.9182 35.8903 38.8928 35.8448L38.8904 35.8473C38.8729 35.8679 38.8534 35.8873 38.8318 35.9052C38.6149 36.0845 38.3464 36.1607 38.0859 36.1393L38.0717 36.1382C37.8066 36.1133 37.5515 35.9877 37.3691 35.7674C37.3037 35.6884 37.2521 35.6026 37.2139 35.5127C37.0029 35.6666 36.7498 35.7298 36.5044 35.7066C36.2394 35.6817 35.9843 35.5562 35.802 35.3359L35.8021 35.3359L35.8013 35.3351C35.6194 35.1152 35.5437 34.8419 35.5686 34.5778C35.5931 34.3177 35.7136 34.0674 35.9243 33.886C36.1877 33.6011 38.2361 31.3872 39.3028 30.2631C38.9656 30.2747 38.6377 30.2858 38.5344 30.2893C38.2103 30.3255 37.8996 30.2376 37.6573 30.0656C37.4088 29.8892 37.2322 29.6245 37.1819 29.3115C37.1795 29.2992 37.1774 29.2867 37.1759 29.274C37.1367 28.9511 37.2405 28.6434 37.4409 28.406C37.6219 28.1915 37.8844 28.0364 38.1902 27.9857C38.2066 27.9818 38.2233 27.9788 38.2404 27.9767L38.2459 27.9761L38.246 27.9772L38.2567 27.9761C38.2649 27.9752 41.1033 27.6845 42.1232 27.5728L42.1357 27.5713L42.3254 27.5499C43.3176 27.439 44.0113 27.3613 44.8765 26.6449C44.9068 26.6197 45.7876 25.7724 47.0528 24.5552C50.264 21.4658 55.9296 16.0153 56.6899 15.3647C56.772 15.2885 56.8818 15.2417 57.0026 15.2412C57.258 15.2402 57.4659 15.4464 57.4669 15.7018L57.4995 21.5147C57.507 21.6537 57.4522 21.7945 57.3382 21.8919C57.1664 22.0386 54.803 24.2186 52.4454 26.3931C50.0992 28.5571 47.7587 30.716 47.5645 30.8819L47.5642 30.8815C47.1725 31.2334 46.8968 31.654 46.6046 32.0999C46.1952 32.7248 45.7561 33.3946 44.9098 34.0803C44.9052 34.0844 44.9006 34.0884 44.8958 34.0924L42.3795 36.1758C42.1589 36.3581 41.8847 36.4336 41.6196 36.4086C41.3547 36.3836 41.0998 36.2582 40.9176 36.0386L40.9164 36.0372L40.9164 36.0373Z" fill="white"/>
<path fill-rule="evenodd" clip-rule="evenodd" d="M31.1318 27.933C31.1236 27.928 31.1152 27.9232 31.1069 27.9182L28.1135 26.0892C28.1004 26.0812 28.0834 26.0856 28.0754 26.0987C28.0657 26.1146 28.0919 26.1417 28.1026 26.1497L31.6528 28.8137C32.2536 29.2206 31.9218 29.9243 31.4038 30.0239C31.2301 30.0573 31.0487 30.0197 30.9019 29.9208L30.5457 29.7031L30.5464 29.7018L27.091 27.5771C27.0773 27.5687 27.0597 27.5727 27.0499 27.5892C27.0481 27.6068 27.0763 27.6366 27.0886 27.6462L30.1935 30.0662C30.2142 30.0823 30.235 30.0982 30.2562 30.1135C30.3912 30.2107 30.4757 30.3574 30.5067 30.519C30.5378 30.681 30.5138 30.8493 30.4243 30.9896C30.411 31.0104 30.3971 31.0308 30.3827 31.0509C30.2857 31.1859 30.1392 31.2708 29.9774 31.3019C29.8055 31.335 29.626 31.2986 29.4802 31.2019C29.4731 31.1973 29.466 31.1928 29.459 31.1881L25.75 28.66C25.7371 28.6512 25.7197 28.6542 25.7108 28.6672C25.7012 28.6813 25.7114 28.7003 25.7224 28.7104L28.023 30.8434C28.032 30.8504 28.0423 30.8571 28.0515 30.8636C28.1902 30.9613 28.2795 31.1106 28.3113 31.2759C28.3443 31.4472 28.3081 31.6262 28.2119 31.7716C28.2052 31.7825 28.1983 31.7931 28.1908 31.8036C28.0934 31.9405 27.9453 32.0277 27.7817 32.0592C27.6104 32.0922 27.4314 32.0562 27.2859 31.9603C27.2732 31.9526 27.2607 31.9451 27.2483 31.9367L22.6257 28.8065C21.7297 28.2092 21.1309 27.5522 20.4657 26.7236C20.0286 26.1791 19.6172 25.6736 19.0472 25.2556C19.0422 25.2522 19.0369 25.2489 19.0318 25.2455C18.6274 24.9804 18.2275 24.6924 17.8309 24.4151C17.1408 23.9327 16.4519 23.4486 15.7629 22.9646C15.0292 22.4494 14.2959 21.9338 13.5612 21.4201L12.5 20.678L12.5945 13.324L13.2955 13.9048C14.4928 14.8968 15.663 15.9417 16.8261 16.9736C17.7642 17.8058 18.6988 18.6418 19.6333 19.4781C19.9778 19.7865 20.3222 20.0953 20.668 20.4024C20.813 20.5312 20.9764 20.6883 21.1299 20.8056C22.3655 21.6411 23.2 21.674 24.6289 21.6966L24.8551 21.7002C25.5833 21.7002 26.3117 21.706 27.0399 21.7113C27.6015 21.7154 28.1632 21.72 28.7248 21.7253C29.0127 21.7281 29.3064 21.7258 29.5939 21.7359L29.5987 21.7361C29.8281 21.7442 30.0491 21.8326 30.214 21.9935C30.3703 22.1462 30.4623 22.3559 30.4556 22.5754C30.4486 22.8007 30.3404 23.0062 30.1711 23.1528C29.9935 23.3065 29.7619 23.3848 29.525 23.3803L29.4398 23.3851C29.076 23.4089 27.7228 23.4975 27.5088 23.5023C27.4578 23.5035 27.3823 23.5127 27.3355 23.5335C27.3099 23.5449 27.2878 23.5584 27.2748 23.584C27.2569 23.619 27.2618 23.6352 27.281 23.6708C27.3089 23.7225 27.3892 23.7829 27.4361 23.8147C28.4273 24.4861 31.7487 26.7352 31.876 26.821L31.8828 26.8257C32.1859 27.0335 32.3269 27.3398 32.0629 27.743C31.8231 28.1091 31.6109 28.2516 31.1318 27.933V27.933Z" fill="white"/>
</svg>
