<svg width="90" height="90" viewBox="0 0 90 90" fill="none" xmlns="http://www.w3.org/2000/svg">
<rect width="90" height="90" rx="45" fill="#3E468F"/>
<path d="M21.4814 54.4311C20.8369 54.4311 20.3145 53.9086 20.3145 53.2641C20.3145 52.6196 20.837 52.0971 21.4814 52.0971H27.6756C28.3201 52.0971 28.8426 52.6196 28.8426 53.2641C28.8426 53.9086 28.3201 54.4311 27.6756 54.4311H21.4814Z" fill="white"/>
<path d="M23.2318 17.553H19.731V32.0085H23.2318V17.553Z" fill="white"/>
<path d="M73.6248 17.553H70.124V59.5676H73.6248V17.553Z" fill="white"/>
<path d="M58.8358 17.553H55.335V37.4864H58.8358V17.553Z" fill="white"/>
<path fill-rule="evenodd" clip-rule="evenodd" d="M46.0229 33.9855H67.0518V37.4864H46.0229V33.9855Z" fill="white"/>
<path fill-rule="evenodd" clip-rule="evenodd" d="M58.7905 44.6116H73.625V48.1125H58.7905V44.6116Z" fill="white"/>
<path fill-rule="evenodd" clip-rule="evenodd" d="M19.731 51.5136H29.4261V55.0145H19.731V51.5136Z" fill="white"/>
<path fill-rule="evenodd" clip-rule="evenodd" d="M73.6249 21.0538H19.731V17.553H73.6249V21.0538Z" fill="white"/>
<path fill-rule="evenodd" clip-rule="evenodd" d="M73.6249 71.4471H19.731V67.9462H73.6249V71.4471Z" fill="white"/>
<path fill-rule="evenodd" clip-rule="evenodd" d="M49.524 28.5081V32.0089H33.9727V28.5081H49.524Z" fill="white"/>
<path fill-rule="evenodd" clip-rule="evenodd" d="M49.5237 41.8684H46.0229V28.5081H49.5237V41.8684Z" fill="white"/>
<path fill-rule="evenodd" clip-rule="evenodd" d="M37.4495 49.3316H33.9487V28.7462H37.4495V49.3316Z" fill="white"/>
<path d="M23.2318 36.1765H19.731V71.447H23.2318V36.1765Z" fill="white"/>
<path d="M44.0467 51.5137H40.5459V71.4471H44.0467V51.5137Z" fill="white"/>
<path d="M73.6248 63.7352H70.124V71.4469H73.6248V63.7352Z" fill="white"/>
<path fill-rule="evenodd" clip-rule="evenodd" d="M54.5083 64.4981L55.1642 60.6821L58.3242 63.8421L54.5083 64.4981Z" fill="white"/>
<path d="M67.586 54.5826L64.4238 51.4204L55.615 60.2293L58.7772 63.3914L67.586 54.5826Z" fill="white"/>
<path fill-rule="evenodd" clip-rule="evenodd" d="M67.5859 50.0652L68.9412 51.4204C69.4381 51.9174 69.4381 52.7305 68.9412 53.2274L68.0377 54.1309L64.8755 50.9687L65.779 50.0652C66.2759 49.5683 67.089 49.5683 67.5859 50.0652L67.5859 50.0652Z" fill="white"/>
<path d="M18.8926 32.0374C18.2783 31.8436 17.6232 32.1844 17.4294 32.7986C17.2355 33.4129 17.5764 34.068 18.1906 34.2618C23.4167 35.9207 26.5474 37.1093 28.2648 39.0853C29.9531 41.0278 30.4431 43.9623 30.4431 49.1681C30.4431 49.5071 30.4341 49.7509 30.4242 50.0175C30.3279 52.6146 30.1777 56.6687 33.9269 56.7817C38.449 56.918 39.6271 52.4065 40.6197 48.6046C40.9882 47.1936 41.3261 45.8995 41.7664 45.2129C41.9321 44.9546 42.179 44.8844 42.5984 45.1534C43.4458 45.6968 44.1717 46.7567 44.767 47.9784C45.6747 49.8415 46.2434 52.0167 46.5093 53.4673C46.5447 53.6601 46.614 54.1135 46.6953 54.645C47.2165 58.0538 48.227 64.6604 51.5969 64.9757C52.2363 65.0336 52.8017 64.5622 52.8596 63.9227C52.9175 63.2833 52.446 62.718 51.8066 62.66C50.2584 62.5152 49.4295 57.0951 49.0019 54.2985C48.9339 53.8542 48.876 53.4754 48.7976 53.048C48.5027 51.439 47.8715 49.0257 46.8639 46.9574C46.1021 45.394 45.1117 43.9982 43.8565 43.1934C41.9742 41.9863 40.7446 42.4917 39.8064 43.9548C39.171 44.9455 38.7868 46.4169 38.3679 48.0212C37.5898 51.0012 36.6663 54.5375 33.9907 54.4569C32.5891 54.4146 32.6866 51.7845 32.7491 50.0996C32.7637 49.7042 32.7771 49.3432 32.7771 49.1681C32.7771 43.3703 32.1578 40.0175 30.0244 37.5629C27.92 35.1416 24.5163 33.8225 18.8926 32.0375L18.8926 32.0374Z" fill="white"/>
</svg>
