<svg width="90" height="90" viewBox="0 0 90 90" fill="none" xmlns="http://www.w3.org/2000/svg">
<g clip-path="url(#clip0_2747_1515)">
<rect width="90" height="90" rx="45" fill="#3E468F"/>
<path d="M60.8845 16.9492C62.3821 16.9492 63.7382 17.5564 64.7197 18.5379C65.7012 19.5195 66.3084 20.8755 66.3084 22.3732C66.3084 23.8884 65.6667 25.6141 64.6431 26.8995C63.6782 28.1111 62.3631 28.9605 60.8845 28.9605C59.4058 28.9605 58.0907 28.1111 57.1258 26.8995C56.1022 25.6141 55.4604 23.8884 55.4604 22.3732C55.4604 20.8755 56.0676 19.5194 57.0492 18.5379C58.0307 17.5563 59.3868 16.9492 60.8845 16.9492H60.8845Z" fill="white"/>
<path fill-rule="evenodd" clip-rule="evenodd" d="M54.5686 69.6214C54.6096 70.5674 55.0226 71.426 55.921 71.843C56.2151 71.9794 56.5367 72.0508 56.8609 72.0508C57.1851 72.0508 57.5067 71.9794 57.8007 71.8429C58.7489 71.403 59.1565 70.471 59.1565 69.4635V56.8073C59.1565 56.6438 59.1511 56.4794 59.1491 56.3158C59.1476 56.1949 59.1461 56.074 59.1455 55.9531C59.1416 55.1616 59.1332 53.9224 59.8753 53.4318C60.0739 53.3006 60.3009 53.2389 60.5381 53.2389C60.8639 53.2389 61.1708 53.3326 61.421 53.5456C61.9846 54.0254 62.02 54.906 62.02 55.5905C62.02 55.7994 62.0189 56.0079 62.0147 56.2167C62.0105 56.4205 62.0031 56.6271 62.003 56.8308V69.4636C62.003 70.4711 62.4106 71.403 63.3588 71.843C63.6528 71.9795 63.9744 72.0508 64.2986 72.0508C64.6228 72.0508 64.9444 71.9794 65.2385 71.843C66.1867 71.403 66.5942 70.471 66.5942 69.4636C66.5942 63.4067 66.5977 57.3499 66.6445 51.2931C66.6483 50.8003 66.6524 50.3076 66.6568 49.8147H54.5172C54.5205 50.2018 54.5237 50.5889 54.5267 50.9759C54.5689 56.4291 54.5698 61.8823 54.569 67.3356L54.5687 69.6213L54.5686 69.6214ZM66.6735 48.0636C66.71 44.5419 66.7646 41.0197 66.8567 37.4996L66.8973 35.9437L67.8898 37.1427C68.1821 37.4958 68.4376 37.8787 68.6523 38.2837C69.1768 39.2735 69.4493 40.3806 69.4493 41.5005V47.3501C69.4493 48.2688 69.814 49.1286 70.6782 49.5354C70.9466 49.6617 71.2402 49.7289 71.537 49.7289C71.8338 49.7289 72.1275 49.6617 72.3958 49.5354C73.26 49.1287 73.6248 48.2688 73.6248 47.3501V41.5005C73.6248 38.5552 72.5222 35.6169 70.5455 33.4279C68.6413 31.319 66.0638 30.1376 63.2252 29.9921L63.2058 29.9912C62.4095 29.9504 61.6139 29.9621 60.8171 29.9662L60.5737 29.9675C59.7569 29.9717 58.9617 30.09 58.1862 30.3485C57.6177 30.538 57.1101 30.7899 56.5825 31.0683C56.444 31.1414 56.3056 31.2145 56.1668 31.2872C56.0028 31.3732 55.8584 31.4621 55.6523 31.4353C54.7692 31.3203 53.8573 30.6828 53.2206 30.0877C52.6418 29.5466 51.8873 28.6639 51.7935 27.8475C51.732 27.3117 52.1533 26.5969 52.4242 26.153C52.8884 25.3921 53.4212 24.6455 53.9883 23.9571C54.4837 23.3557 54.7044 22.6172 54.4714 21.8603C54.3699 21.5302 54.192 21.2243 53.9568 20.9716C53.7163 20.713 53.4189 20.5117 53.0874 20.3892C52.2553 20.0818 51.4193 20.3202 50.728 20.8266L50.6551 20.8828C50.6524 20.8848 50.6499 20.8869 50.6473 20.889C49.7045 21.6729 48.9299 22.818 48.3767 23.9065C47.8155 25.0107 47.3141 26.3948 47.2137 27.6365C47.0926 29.1336 47.7454 30.4969 48.6157 31.6735C50.0059 33.5531 52.1363 35.2205 54.0408 36.5451L54.2822 36.7131L54.2909 37.007C54.4002 40.691 54.4617 44.3777 54.5004 48.0637H66.6735L66.6735 48.0636Z" fill="white"/>
<path fill-rule="evenodd" clip-rule="evenodd" d="M21.2425 50.2334L21.8019 50.0051C22.0832 49.8903 22.3635 49.7733 22.6439 49.6565C25.5666 48.4381 28.2946 47.3349 31.4265 48.6292L32.1081 48.9109L32.2257 48.1829C32.4672 46.6887 33.2367 45.2917 34.1635 44.1133C35.4463 42.4821 37.216 41.023 39.0443 40.0444L39.5539 39.7716L38.3671 37.5007L40.1441 38.0545L45.0945 39.6065L42.9847 46.3361L41.5658 43.6213L41.0319 43.9525C39.4046 44.9617 36.5077 46.8586 36.4501 48.9983C36.4332 49.6255 36.6382 50.247 36.9413 50.7898C37.3054 51.442 37.8251 52.0101 38.4082 52.4733L52.2353 63.4578V63.7396C52.2352 64.8693 52.2348 65.9991 52.2346 67.1288L52.2345 67.7124H52.2308V68.7896L51.2712 67.9814C46.0991 63.6256 40.3906 59.957 35.2455 55.5651C33.388 53.9795 31.1861 52.406 28.6266 52.4975C27.0351 52.5543 25.4343 53.2198 23.9668 53.7932C23.7336 53.8842 23.5005 53.9752 23.267 54.0651L22.7301 54.2718L23.7808 57.1243L17.375 54.1673L20.3324 47.7608L20.7752 48.9689L20.7766 48.9684L21.2425 50.2335L21.2425 50.2334Z" fill="white"/>
</g>
<defs>
<clipPath id="clip0_2747_1515">
<rect width="90" height="90" fill="white"/>
</clipPath>
</defs>
</svg>
