<svg width="90" height="90" viewBox="0 0 90 90" fill="none" xmlns="http://www.w3.org/2000/svg">
<rect width="90" height="90" rx="45" fill="#3E468F"/>
<path fill-rule="evenodd" clip-rule="evenodd" d="M63.0588 38.0925C63.0588 37.1254 62.986 34.7483 62.8465 32.6849C62.7503 31.2616 62.6168 29.9718 62.4426 29.3449C61.3468 25.4009 58.8662 22.243 55.6011 20.0281C52.1865 17.7117 47.911 16.4334 43.4789 16.3789C40.9507 16.3479 38.5355 16.7472 36.3022 17.508C33.978 18.2998 31.8448 19.483 29.9801 20.98C28.6865 22.0185 27.464 23.4776 26.432 25.2039C25.4394 26.8642 24.6178 28.7759 24.0757 30.7991C23.0779 34.5229 22.7599 37.7627 23.2885 41.3914C23.8087 44.9627 25.1525 48.8747 27.4837 53.9843C28.2973 55.7677 29.058 57.9399 29.6203 60.7583C30.1863 63.595 30.5447 67.0744 30.5447 71.451C30.5447 72.0981 31.0695 72.6229 31.7166 72.6229H50.1657C50.8129 72.6229 51.3376 72.0981 51.3376 71.451C51.3376 69.9665 51.2182 68.6681 51.119 67.5893C51.0564 66.9083 51.0028 66.3257 51.0028 65.8C51.0028 64.9281 51.3881 64.5674 53.1836 64.5674C54.0369 64.5674 54.6893 64.5857 55.3337 64.6039C58.9102 64.7046 62.2883 64.7996 63.6513 62.4446L63.6533 62.4458C64.0326 61.789 64.105 60.0083 64.0165 57.9637C63.9315 55.9972 63.7205 53.7002 63.5098 52.0241C65.5318 52.0213 66.5256 52.0163 67.6799 50.6792C67.9109 50.4122 67.9995 50.0702 67.9524 49.7462C67.6298 47.1333 63.0588 39.5632 63.0588 38.0926L63.0588 38.0925ZM49.0158 38.8998V47.1029V48.2748H47.8439H38.4689H37.297V47.1029V38.8998H34.9532H32.376L34.0743 36.9588L42.2775 27.5838L43.1564 26.5794L44.0353 27.5838L52.2385 36.9588L53.9368 38.8998H51.3595H49.0158H49.0158Z" fill="white"/>
</svg>
