<svg width="70" height="70" viewBox="0 0 70 70" fill="none" xmlns="http://www.w3.org/2000/svg">
<rect width="70" height="70" rx="35" fill="#3E468F"/>
<path fill-rule="evenodd" clip-rule="evenodd" d="M34.4615 33.209C34.3461 33.1614 34.2269 33.1202 34.1044 33.0859L34.0069 32.3602C33.9944 32.1459 33.8166 31.9758 33.5991 31.9758H32.8343V31.9766C32.6289 31.9763 32.452 32.1308 32.429 32.3396L32.3448 33.0896C32.2253 33.1235 32.1092 33.1639 31.9968 33.2105C31.8832 33.2576 31.7724 33.3114 31.6649 33.3714L31.0939 32.9156C30.9336 32.7705 30.6859 32.7753 30.5313 32.9298L29.9903 33.4707L29.991 33.4713C29.8485 33.6134 29.8299 33.8425 29.9553 34.0068L30.4178 34.6129C30.3556 34.7232 30.2998 34.8372 30.2511 34.9542C30.204 35.0675 30.163 35.1848 30.1287 35.3055L29.4025 35.387C29.1867 35.398 29.0151 35.5764 29.0151 35.7949V36.5599H29.0163C29.0161 36.7609 29.1647 36.936 29.3693 36.9635L30.1252 37.0651C30.1595 37.1876 30.2007 37.3068 30.2483 37.4222C30.2961 37.538 30.3505 37.6505 30.4109 37.759L29.9391 38.3506C29.812 38.5102 29.8218 38.7432 29.9692 38.8913L30.5008 39.4231C30.642 39.5747 30.878 39.5972 31.046 39.4689L31.6523 39.0064C31.7626 39.0686 31.8766 39.1243 31.9937 39.173C32.107 39.2201 32.2242 39.2611 32.3448 39.2953L32.4264 40.0217C32.4373 40.2375 32.6158 40.4091 32.8343 40.4091H33.5991V40.4079C33.8002 40.4082 33.9753 40.2595 34.0028 40.0549L34.1044 39.299C34.2209 39.2665 34.3343 39.2276 34.4442 39.183L34.4665 39.1745C34.5848 39.1255 34.6999 39.0692 34.8113 39.0064L35.3962 39.4527C35.5566 39.593 35.8006 39.5867 35.9536 39.4338L36.4943 38.8929L36.4938 38.8924C36.6387 38.7479 36.655 38.5145 36.5246 38.3505L36.0526 37.7591C36.113 37.6505 36.1674 37.5381 36.2152 37.4221C36.2629 37.3068 36.3041 37.1875 36.3383 37.0651L37.064 36.9676C37.2784 36.9551 37.4484 36.7773 37.4484 36.5599V35.7949H37.4477C37.4479 35.5896 37.2934 35.4127 37.0846 35.3897L36.3347 35.3055C36.3004 35.1848 36.2595 35.0675 36.2123 34.9542C36.1636 34.8371 36.1079 34.7232 36.0457 34.6129L36.492 34.028C36.6323 33.8676 36.626 33.6235 36.4731 33.4707L35.9322 32.9298L35.9317 32.9303C35.7872 32.7855 35.5537 32.7692 35.3898 32.8995L34.7983 33.3716C34.6898 33.3113 34.5773 33.2569 34.4615 33.209V33.209ZM33.2317 34.7899C33.619 34.7899 33.9696 34.947 34.2234 35.2007C34.4772 35.4545 34.6343 35.8052 34.6343 36.1924C34.6343 36.5797 34.4772 36.9304 34.2234 37.1842C33.9697 37.438 33.619 37.595 33.2317 37.595C32.8445 37.595 32.4938 37.438 32.24 37.1842C31.9863 36.9304 31.8292 36.5797 31.8292 36.1924C31.8292 35.8053 31.9863 35.4545 32.24 35.2007C32.4938 34.947 32.8445 34.7899 33.2317 34.7899Z" fill="white"/>
<path fill-rule="evenodd" clip-rule="evenodd" d="M41.5163 39.4022C41.4306 39.3366 41.3402 39.2755 41.2456 39.2194L41.3265 38.5912C41.3641 38.4093 41.2536 38.2275 41.0719 38.1788L40.4329 38.0076L40.4327 38.0082C40.2612 37.962 40.0788 38.0515 40.0128 38.2208L39.7746 38.8285C39.6671 38.8301 39.561 38.8379 39.4567 38.8517C39.3513 38.8656 39.2467 38.8857 39.1434 38.9118L38.7684 38.4031C38.667 38.246 38.4589 38.1945 38.2951 38.2891L37.7221 38.6199L37.7225 38.6205C37.5717 38.7073 37.5047 38.8946 37.5727 39.0599L37.8235 39.6699C37.7468 39.7481 37.6747 39.8308 37.6078 39.9177C37.543 40.0019 37.4826 40.0907 37.4269 40.1839L36.8019 40.0894C36.6192 40.0502 36.4358 40.1609 36.3869 40.3434L36.2157 40.9826L36.2166 40.9828C36.1715 41.1507 36.2564 41.3303 36.4213 41.3991L37.03 41.6532C37.0312 41.7632 37.039 41.8721 37.0529 41.9791C37.067 42.0866 37.0872 42.1927 37.1134 42.2969L36.5868 42.6857C36.4449 42.7905 36.4009 42.9874 36.4908 43.1441L36.816 43.7074C36.9 43.8657 37.0921 43.9374 37.2612 43.8678L37.8714 43.617C37.9496 43.6937 38.0324 43.7658 38.1192 43.8327C38.2034 43.8974 38.2921 43.9579 38.3852 44.0135L38.2908 44.6387C38.2516 44.8214 38.3623 45.0048 38.5449 45.0537L39.1839 45.2249L39.1842 45.2239C39.3521 45.2691 39.5317 45.1841 39.6005 45.0193L39.8546 44.4105C39.9592 44.4094 40.0626 44.4024 40.1645 44.3897L40.185 44.3875C40.2948 44.3731 40.4035 44.3518 40.5107 44.3243L40.8995 44.8281C41.0021 44.9813 41.2074 45.0306 41.3694 44.9372L41.9423 44.6063L41.942 44.6057C42.0954 44.5174 42.1613 44.326 42.0891 44.1598L41.8271 43.56C41.9019 43.4828 41.9725 43.4011 42.0384 43.3149C42.1041 43.2292 42.1652 43.1389 42.2212 43.0442L42.8493 43.1251C43.0312 43.1627 43.2131 43.0523 43.2618 42.8705L43.433 42.2314L43.4324 42.2313C43.4786 42.0598 43.3891 41.8774 43.2198 41.8114L42.6121 41.5733C42.6105 41.4647 42.6025 41.3575 42.5885 41.2522C42.574 41.1436 42.553 41.0359 42.5257 40.9298L43.0295 40.5411C43.1826 40.4385 43.232 40.2331 43.1385 40.0712L42.8077 39.4982L42.8071 39.4985C42.7188 39.3451 42.5274 39.2792 42.3612 39.3514L41.7614 39.6135C41.6842 39.5387 41.6024 39.4681 41.5163 39.4022H41.5163ZM40.135 40.4477C40.4585 40.5345 40.7164 40.7442 40.8715 41.013C41.0268 41.2819 41.0795 41.6101 40.9928 41.9336C40.9061 42.2571 40.6964 42.515 40.4275 42.6702C40.1587 42.8254 39.8305 42.8782 39.507 42.7914C39.1834 42.7048 38.9256 42.495 38.7704 42.2261C38.6151 41.9573 38.5624 41.6291 38.6491 41.3056C38.7358 40.9821 38.9455 40.7243 39.2144 40.569C39.4833 40.4138 39.8115 40.3611 40.135 40.4477Z" fill="white"/>
<path fill-rule="evenodd" clip-rule="evenodd" d="M32.5836 42.112C32.4481 42.056 32.308 42.0076 32.1641 41.9673L32.0495 41.1147C32.0348 40.8628 31.826 40.6631 31.5705 40.6631H30.6718V40.6639C30.4305 40.6636 30.2227 40.8452 30.1956 41.0905L30.0967 41.9716C29.9563 42.0115 29.8199 42.059 29.6878 42.1138C29.5544 42.1691 29.4242 42.2322 29.2979 42.3028L28.627 41.7672C28.4387 41.5968 28.1476 41.6023 27.966 41.7839L27.3304 42.4194L27.3311 42.4202C27.1638 42.5871 27.1418 42.8563 27.2892 43.0493L27.8326 43.7614C27.7595 43.8911 27.694 44.0249 27.6368 44.1624C27.5814 44.2956 27.5332 44.4335 27.493 44.5753L26.6397 44.671C26.3862 44.6838 26.1846 44.8935 26.1846 45.1502V46.049H26.1859C26.1856 46.2851 26.3603 46.4909 26.6007 46.5232L27.4888 46.6426C27.5291 46.7865 27.5775 46.9266 27.6334 47.0622C27.6897 47.1983 27.7536 47.3304 27.8245 47.4579L27.2702 48.1531C27.1208 48.3404 27.1324 48.6143 27.3055 48.7883L27.9301 49.4131C28.096 49.5912 28.3733 49.6177 28.5707 49.4669L29.2831 48.9235C29.4127 48.9966 29.5466 49.062 29.6841 49.1193C29.8173 49.1746 29.955 49.2227 30.0967 49.263L30.1925 50.1165C30.2054 50.37 30.4151 50.5716 30.6718 50.5716H31.5705V50.5702C31.8066 50.5705 32.0124 50.3959 32.0447 50.1554L32.1641 49.2673C32.3009 49.2291 32.4342 49.1835 32.5634 49.131L32.5896 49.121C32.7285 49.0634 32.8637 48.9973 32.9946 48.9235L33.6819 49.4478C33.8704 49.6127 34.1571 49.6053 34.3367 49.4257L34.9721 48.7902L34.9715 48.7896C35.1417 48.6198 35.1609 48.3455 35.0077 48.1529L34.4531 47.458C34.5241 47.3304 34.588 47.1983 34.6442 47.0621C34.7002 46.9265 34.7486 46.7865 34.7888 46.6426L35.6414 46.528C35.8933 46.5134 36.093 46.3045 36.093 46.049V45.1503H36.0922C36.0925 44.909 35.911 44.7011 35.6657 44.6741L34.7846 44.5753C34.7443 44.4334 34.6962 44.2956 34.6408 44.1624C34.5836 44.0249 34.5181 43.891 34.445 43.7614L34.9693 43.0743C35.1342 42.8858 35.1268 42.599 34.9472 42.4194L34.3117 41.7839L34.3111 41.7846C34.1413 41.6144 33.867 41.5952 33.6743 41.7483L32.9794 42.303C32.8519 42.2321 32.7198 42.1682 32.5836 42.112L32.5836 42.112ZM31.1388 43.9694C31.5938 43.9694 32.0058 44.1539 32.304 44.4521C32.6022 44.7503 32.7867 45.1624 32.7867 45.6173C32.7867 46.0723 32.6022 46.4843 32.304 46.7825C32.0058 47.0807 31.5938 47.2652 31.1388 47.2652C30.6838 47.2652 30.2718 47.0807 29.9736 46.7825C29.6754 46.4843 29.4909 46.0723 29.4909 45.6173C29.4909 45.1624 29.6754 44.7503 29.9736 44.4521C30.2718 44.1539 30.6839 43.9694 31.1388 43.9694Z" fill="white"/>
<path d="M52.0272 20.4638C52.306 20.4638 52.5321 20.6899 52.5321 20.9687C52.5321 21.2475 52.306 21.4735 52.0272 21.4735C51.4538 21.4735 50.9043 21.3752 50.4051 21.2096C49.8568 21.0277 49.3717 20.7629 48.984 20.4569C48.6704 20.2094 48.4168 19.9321 48.2402 19.6462C48.0463 19.3325 47.9404 19.0051 47.9404 18.686C47.9404 18.4072 48.1665 18.1812 48.4452 18.1812C49.019 18.1812 49.509 18.2914 49.7271 18.6444C49.8432 18.8323 50.6616 18.7181 50.8824 18.8924C51.1824 19.1292 51.1547 19.2699 51.5883 19.4137C51.9831 19.5447 51.5573 20.4638 52.0272 20.4638L52.0272 20.4638Z" fill="white"/>
<path d="M48.7041 19.8312C48.8903 20.0381 48.8736 20.3569 48.6666 20.5431C48.3537 20.8242 47.975 21.065 47.5519 21.231C47.1621 21.3838 46.7357 21.4736 46.2894 21.4736C46.0105 21.4736 46.4857 21.2475 46.4857 20.9687C46.4857 20.6899 46.4487 19.8986 46.7276 19.8986C47.0452 19.8986 47.0584 19.0726 47.3341 18.9645C47.6395 18.8447 48.6571 19.779 48.7041 19.8312L48.7041 19.8312Z" fill="white"/>
<path d="M49.4814 17.9587C50.4059 17.9587 51.2432 18.3336 51.8491 18.9395C52.455 19.5455 52.8299 20.3827 52.8299 21.3073C52.8299 22.2455 52.4323 23.3142 51.798 24.1107C51.2024 24.8588 50.3916 25.3831 49.4814 25.3831C48.5711 25.3831 47.7604 24.8588 47.1647 24.1107C46.5304 23.3142 46.1328 22.2455 46.1328 21.3073C46.1328 20.3827 46.5077 19.5455 47.1136 18.9395C47.7196 18.3335 48.5567 17.9587 49.4813 17.9587H49.4814ZM51.1352 19.6534C50.712 19.2302 50.1272 18.9684 49.4814 18.9684C48.8355 18.9684 48.2507 19.2302 47.8275 19.6534C47.4043 20.0766 47.1425 20.6614 47.1425 21.3073C47.1425 22.0278 47.455 22.8576 47.9535 23.4836C48.3701 24.0067 48.9093 24.3734 49.4814 24.3734C50.0535 24.3734 50.5926 24.0067 51.0093 23.4836C51.5077 22.8576 51.8202 22.0278 51.8202 21.3073C51.8202 20.6614 51.5584 20.0766 51.1352 19.6534H51.1352Z" fill="white"/>
<path fill-rule="evenodd" clip-rule="evenodd" d="M50.2779 26.0414L50.2797 26.0483L50.1038 26.0951C49.9005 26.1491 49.6918 26.1768 49.4815 26.1768C49.2705 26.1768 49.0611 26.1485 48.8572 26.0941C48.6448 26.0372 48.4383 25.959 48.2466 25.8507C48.1698 25.8072 48.0831 25.787 47.9953 25.8013C47.6944 25.8503 47.3963 25.9255 47.1107 26.0328C46.8489 26.1311 46.5949 26.2585 46.3655 26.4189C45.4713 27.0437 44.5173 27.3359 43.434 27.1132C42.5766 26.937 41.7902 26.4782 41.0405 26.0445C40.499 25.7313 39.9512 25.4303 39.3776 25.1794C39.3676 25.175 39.3574 25.1704 39.3472 25.1666C38.7805 24.9562 38.151 24.9636 37.6488 25.3286C37.4508 25.4725 37.292 25.663 37.1864 25.8838C37.0804 26.1053 37.0319 26.3493 37.0479 26.5946C37.0884 27.2129 37.5163 27.6891 38.0194 28.0059C39.2064 28.7531 40.4253 29.5369 41.7394 30.0435C42.7763 30.4433 43.9258 30.7055 45.0389 30.5326L45.246 30.5005L45.2519 30.71C45.3113 32.8315 45.3462 35.1954 45.3686 37.3179H53.2274C53.25 35.1755 53.284 32.7919 53.34 30.6505L53.3531 30.1492L53.6684 30.5392C53.8277 30.7364 53.9678 30.9489 54.0865 31.1729C54.3942 31.7536 54.5541 32.4033 54.5541 33.0604V36.6547C54.5541 37.2943 54.8194 37.8875 55.4184 38.1694C55.6086 38.2589 55.8167 38.3065 56.027 38.3065C56.2373 38.3065 56.4454 38.259 56.6357 38.1694C57.2347 37.8875 57.5 37.2943 57.5 36.6547V33.0604C57.5 31.2037 56.805 29.3528 55.5589 27.9729C54.3606 26.6457 52.7303 25.9289 50.9545 25.8C50.877 25.7943 50.7982 25.8041 50.7293 25.8415C50.5845 25.9201 50.4337 25.9879 50.2779 26.0414L50.2779 26.0414ZM50.0357 28.0133V33.93L49.4815 34.4842L48.9273 33.93V28.072L48.6769 28.2045C48.4968 28.2993 48.2738 28.2301 48.179 28.05C48.0841 27.8699 48.1533 27.6469 48.3334 27.5521L49.362 27.0077L49.3641 27.0067L49.3652 27.006C49.469 26.9515 49.5971 26.9473 49.7087 27.006L50.6296 27.4934C50.8098 27.5882 50.8789 27.8112 50.784 27.9913C50.6892 28.1715 50.4663 28.2406 50.2861 28.1457L50.0357 28.0133L50.0357 28.0133ZM45.3793 38.1173C45.3814 38.35 45.3833 38.6507 45.3851 38.8834C45.411 42.2338 45.4115 45.5842 45.4111 48.9346L45.4108 50.3349C45.4304 50.7577 45.5834 51.1717 45.861 51.4941C46.1529 51.8331 46.5581 52.0413 47.0094 52.0413C47.4607 52.0413 47.8658 51.8331 48.1578 51.4941C48.4556 51.1482 48.6101 50.6967 48.6101 50.2422V40.7001L48.695 40.6456C48.8757 40.5295 49.0854 40.4604 49.3011 40.4604H49.3033C49.5156 40.4604 49.7206 40.5206 49.8971 40.6392L49.9788 40.6941V50.2422C49.9788 50.6967 50.1332 51.1482 50.431 51.494C50.723 51.833 51.1281 52.0413 51.5794 52.0413C52.0308 52.0413 52.4359 51.833 52.7278 51.494C53.0257 51.1482 53.1801 50.6967 53.1801 50.2422C53.1801 46.8414 53.1798 43.4405 53.2024 40.0398C53.2066 39.4217 53.2112 38.7355 53.2167 38.1173H45.3793L45.3793 38.1173Z" fill="white"/>
<path d="M17.9726 20.4638C17.6938 20.4638 17.4678 20.6899 17.4678 20.9687C17.4678 21.2475 17.6938 21.4735 17.9726 21.4735C18.5461 21.4735 19.0956 21.3752 19.5948 21.2096C20.143 21.0277 20.6281 20.7629 21.0158 20.4569C21.3294 20.2094 21.583 19.9321 21.7596 19.6462C21.9535 19.3325 22.0594 19.0051 22.0594 18.686C22.0594 18.4072 21.8334 18.1812 21.5546 18.1812C20.9808 18.1812 20.4909 18.2914 20.2728 18.6444C20.1567 18.8323 19.3383 18.7181 19.1174 18.8924C18.8174 19.1292 18.8452 19.2699 18.4116 19.4137C18.0167 19.5447 18.4426 20.4638 17.9726 20.4638L17.9726 20.4638Z" fill="white"/>
<path d="M21.2959 19.8312C21.1097 20.0381 21.1265 20.3569 21.3334 20.5431C21.6463 20.8242 22.025 21.065 22.4481 21.231C22.8379 21.3838 23.2643 21.4736 23.7107 21.4736C23.9895 21.4736 23.5144 21.2475 23.5144 20.9687C23.5144 20.6899 23.5513 19.8986 23.2724 19.8986C22.9549 19.8986 22.9416 19.0726 22.6659 18.9645C22.3606 18.8447 21.3429 19.779 21.2959 19.8312L21.2959 19.8312Z" fill="white"/>
<path d="M20.5185 17.9587C19.5939 17.9587 18.7567 18.3336 18.1507 18.9395C17.5448 19.5455 17.1699 20.3827 17.1699 21.3073C17.1699 22.2455 17.5675 23.3142 18.2018 24.1107C18.7975 24.8588 19.6082 25.3831 20.5185 25.3831C21.4286 25.3831 22.2395 24.8588 22.8351 24.1107C23.4694 23.3142 23.867 22.2455 23.867 21.3073C23.867 20.3827 23.4921 19.5455 22.8862 18.9395C22.2802 18.3335 21.4431 17.9587 20.5185 17.9587H20.5185ZM18.8646 19.6534C19.2878 19.2302 19.8726 18.9684 20.5185 18.9684C21.1643 18.9684 21.7491 19.2302 22.1723 19.6534C22.5955 20.0766 22.8573 20.6614 22.8573 21.3073C22.8573 22.0278 22.5448 22.8576 22.0463 23.4836C21.6297 24.0067 21.0905 24.3734 20.5184 24.3734C19.9463 24.3734 19.4072 24.0067 18.9906 23.4836C18.4921 22.8576 18.1796 22.0278 18.1796 21.3073C18.1796 20.6614 18.4414 20.0766 18.8646 19.6534H18.8646Z" fill="white"/>
<path fill-rule="evenodd" clip-rule="evenodd" d="M19.722 26.0414L19.7202 26.0483L19.8962 26.0951C20.0994 26.1491 20.3082 26.1768 20.5185 26.1768C20.7295 26.1768 20.9389 26.1485 21.1427 26.0941C21.3551 26.0372 21.5617 25.959 21.7534 25.8507C21.8302 25.8072 21.9168 25.787 22.0046 25.8013C22.3055 25.8503 22.6037 25.9255 22.8893 26.0328C23.1511 26.1311 23.405 26.2585 23.6345 26.4189C24.5287 27.0437 25.4827 27.3359 26.566 27.1132C27.4234 26.937 28.2098 26.4782 28.9595 26.0445C29.5009 25.7313 30.0487 25.4303 30.6223 25.1794C30.6324 25.175 30.6425 25.1704 30.6528 25.1666C31.2195 24.9562 31.8489 24.9636 32.3511 25.3286C32.5491 25.4725 32.708 25.663 32.8136 25.8838C32.9196 26.1053 32.9681 26.3493 32.952 26.5946C32.9115 27.2129 32.4837 27.6891 31.9805 28.0059C30.7935 28.7531 29.5746 29.5369 28.2606 30.0435C27.2237 30.4433 26.0741 30.7055 24.9611 30.5326L24.754 30.5005L24.7481 30.71C24.6886 32.8315 24.6538 35.1954 24.6313 37.3179H16.7725C16.75 35.1755 16.7159 32.7919 16.66 30.6505L16.6469 30.1492L16.3316 30.5392C16.1722 30.7364 16.0322 30.9489 15.9134 31.1729C15.6057 31.7536 15.4459 32.4033 15.4459 33.0604V36.6547C15.4459 37.2943 15.1806 37.8875 14.5816 38.1694C14.3914 38.2589 14.1833 38.3065 13.9729 38.3065C13.7626 38.3065 13.5545 38.2589 13.3643 38.1694C12.7653 37.8875 12.5 37.2943 12.5 36.6547V33.0604C12.5 31.2037 13.195 29.3528 14.441 27.9729C15.6394 26.6457 17.2697 25.9289 19.0455 25.8C19.1229 25.7943 19.2017 25.8041 19.2707 25.8415C19.4154 25.9201 19.5663 25.9879 19.722 26.0414L19.722 26.0414ZM19.9642 28.0133V33.93L20.5185 34.4842L21.0727 33.93V28.072L21.323 28.2045C21.5032 28.2993 21.7262 28.2301 21.821 28.05C21.9158 27.8699 21.8467 27.6469 21.6665 27.5521L20.6379 27.0077L20.6359 27.0067L20.6348 27.006C20.5309 26.9515 20.4029 26.9473 20.2912 27.006L19.3703 27.4934C19.1902 27.5882 19.1211 27.8112 19.2159 27.9913C19.3107 28.1715 19.5337 28.2406 19.7138 28.1457L19.9642 28.0133L19.9642 28.0133ZM24.6207 38.1173C24.6186 38.35 24.6167 38.6507 24.6149 38.8834C24.5889 42.2338 24.5884 45.5842 24.5889 48.9346L24.5891 50.3349C24.5696 50.7577 24.4166 51.1717 24.139 51.4941C23.847 51.8331 23.4419 52.0413 22.9906 52.0413C22.5393 52.0413 22.1341 51.8331 21.8422 51.4941C21.5443 51.1482 21.3899 50.6967 21.3899 50.2422V40.7001L21.305 40.6456C21.1242 40.5295 20.9146 40.4604 20.6988 40.4604H20.6967C20.4843 40.4604 20.2794 40.5206 20.1028 40.6392L20.0212 40.6941V50.2421C20.0212 50.6967 19.8668 51.1482 19.5689 51.494C19.277 51.833 18.8719 52.0413 18.4205 52.0413C17.9692 52.0413 17.5641 51.833 17.2721 51.494C16.9743 51.1482 16.8199 50.6967 16.8199 50.2421C16.8199 46.8414 16.8202 43.4405 16.7975 40.0398C16.7934 39.4217 16.7887 38.7355 16.7833 38.1173H24.6207L24.6207 38.1173Z" fill="white"/>
</svg>
