<svg width="70" height="70" viewBox="0 0 70 70" fill="none" xmlns="http://www.w3.org/2000/svg">
<rect width="70" height="70" rx="35" fill="#3E468F"/>
<path fill-rule="evenodd" clip-rule="evenodd" d="M35.8231 29.6194L37.3805 30.0531L37.8424 28.3905L38.3415 28.6341C38.4096 28.6673 38.4807 28.694 38.5538 28.7143C38.866 28.801 39.1973 28.7598 39.4793 28.6004C39.7625 28.4404 39.9687 28.1781 40.0558 27.8645C40.1426 27.5522 40.1013 27.2209 39.942 26.9389C39.7819 26.6557 39.5197 26.4495 39.206 26.3624C39.1333 26.3422 39.0589 26.3285 38.9837 26.3218L38.4309 26.2727L38.8932 24.6116L37.2072 24.1431L37.4714 23.637C37.5115 23.5602 37.5432 23.4792 37.5664 23.3957C37.6532 23.0834 37.6119 22.7522 37.4525 22.4702C37.2925 22.1869 37.0302 21.9807 36.7166 21.8936C36.4043 21.8069 36.073 21.8481 35.7911 22.0075C35.5078 22.1675 35.3016 22.4298 35.2145 22.7434C35.1915 22.8263 35.1771 22.9114 35.1721 22.9972L35.1383 23.5682L33.4516 23.0995L31.939 28.5402L33.7249 29.0365C33.7294 29.0377 33.7349 29.0393 33.7349 29.0408C33.7389 28.9494 33.7333 29.0047 33.7475 28.9153C33.7616 28.8265 33.7494 28.8823 33.7747 28.7912C33.8537 28.507 34.0408 28.2664 34.2977 28.1212C34.5546 27.976 34.8595 27.9395 35.1437 28.0185C35.4279 28.0974 35.6684 28.2845 35.8136 28.5414C35.9588 28.7983 35.9953 29.1031 35.9164 29.3873C35.8922 29.4745 35.9106 29.4204 35.8751 29.5082C35.849 29.5726 35.8663 29.5398 35.8281 29.6099C35.8265 29.6128 35.8246 29.6162 35.8231 29.6195L35.8231 29.6194Z" fill="white"/>
<path d="M52.6877 22.2166C52.9329 22.2166 53.1317 22.4154 53.1317 22.6606C53.1317 22.9058 52.9329 23.1046 52.6877 23.1046C52.1835 23.1046 51.7002 23.0181 51.2612 22.8725C50.779 22.7125 50.3525 22.4796 50.0116 22.2105C49.7357 21.9929 49.5127 21.7491 49.3574 21.4976C49.1869 21.2217 49.0938 20.9338 49.0938 20.6532C49.0938 20.408 49.2925 20.2092 49.5377 20.2092C50.0423 20.2092 50.4732 20.3062 50.665 20.6166C50.767 20.7819 51.4867 20.6815 51.681 20.8347C51.9448 21.0429 51.9204 21.1666 52.3017 21.2932C52.6489 21.4083 52.2744 22.2166 52.6877 22.2166V22.2166Z" fill="white"/>
<path d="M49.7651 21.6602C49.9289 21.8422 49.9141 22.1225 49.7322 22.2862C49.457 22.5334 49.124 22.7452 48.7519 22.8912C48.4091 23.0256 48.0341 23.1046 47.6416 23.1046C47.3964 23.1046 47.8142 22.9058 47.8142 22.6606C47.8142 22.4154 47.7818 21.7195 48.0269 21.7195C48.3062 21.7195 48.3179 20.9931 48.5603 20.898C48.8289 20.7927 49.7238 21.6143 49.7651 21.6602L49.7651 21.6602Z" fill="white"/>
<path d="M50.4487 20.0137C51.2618 20.0137 51.998 20.3433 52.5309 20.8762C53.0637 21.4091 53.3934 22.1453 53.3934 22.9584C53.3934 23.7835 53.0437 24.7233 52.486 25.4238C51.9621 26.0816 51.2491 26.5428 50.4487 26.5428C49.6482 26.5428 48.9352 26.0816 48.4114 25.4238C47.8536 24.7233 47.5039 23.7835 47.5039 22.9584C47.5039 22.1453 47.8336 21.4091 48.3664 20.8762C48.8994 20.3433 49.6355 20.0137 50.4487 20.0137H50.4487ZM51.9031 21.504C51.5309 21.1318 51.0166 20.9016 50.4487 20.9016C49.8807 20.9016 49.3664 21.1318 48.9942 21.504C48.6221 21.8762 48.3918 22.3904 48.3918 22.9584C48.3918 23.592 48.6667 24.3218 49.105 24.8723C49.4714 25.3323 49.9455 25.6548 50.4487 25.6548C50.9518 25.6548 51.4259 25.3323 51.7923 24.8723C52.2306 24.3218 52.5055 23.592 52.5055 22.9584C52.5055 22.3904 52.2752 21.8762 51.9031 21.504H51.9031Z" fill="white"/>
<path fill-rule="evenodd" clip-rule="evenodd" d="M51.149 27.1217L51.1506 27.1278L50.9958 27.1689C50.8171 27.2164 50.6335 27.2407 50.4486 27.2407C50.263 27.2407 50.0789 27.2159 49.8996 27.168C49.7128 27.1181 49.5312 27.0493 49.3626 26.954C49.2951 26.9158 49.2189 26.898 49.1416 26.9106C48.8771 26.9537 48.6148 27.0198 48.3637 27.1141C48.1335 27.2006 47.9101 27.3127 47.7083 27.4537C46.922 28.0031 46.083 28.2601 45.1303 28.0643C44.3763 27.9093 43.6848 27.5058 43.0254 27.1244C42.5493 26.849 42.0676 26.5843 41.5631 26.3637C41.5543 26.3599 41.5454 26.3557 41.5363 26.3524C41.038 26.1674 40.4845 26.1739 40.0428 26.4949C39.8687 26.6214 39.729 26.789 39.6361 26.9832C39.5429 27.1779 39.5002 27.3925 39.5144 27.6082C39.5499 28.1519 39.9262 28.5708 40.3687 28.8493C41.4126 29.5064 42.4845 30.1957 43.6401 30.6413C44.552 30.9929 45.5629 31.2234 46.5417 31.0714L46.7238 31.0431L46.729 31.2274C46.7813 33.0931 46.8119 35.1718 46.8317 37.0384H53.7428C53.7627 35.1544 53.7926 33.0582 53.8418 31.1751L53.8533 30.7342L54.1306 31.0772C54.2707 31.2506 54.3939 31.4374 54.4983 31.6344C54.7689 32.1451 54.9095 32.7165 54.9095 33.2943V36.4552C54.9095 37.0177 55.1428 37.5393 55.6696 37.7872C55.8368 37.866 56.0198 37.9078 56.2048 37.9078C56.3898 37.9078 56.5728 37.866 56.7401 37.7872C57.2669 37.5393 57.5001 37.0177 57.5001 36.4552V33.2943C57.5001 31.6615 56.889 30.0338 55.7932 28.8203C54.7393 27.6532 53.3056 27.0228 51.7439 26.9094C51.6759 26.9045 51.6065 26.9131 51.5459 26.946C51.4186 27.015 51.286 27.0747 51.149 27.1217V27.1217ZM50.936 28.8558V34.059L50.4486 34.5464L49.9612 34.059V28.9074L49.741 29.024C49.5826 29.1074 49.3865 29.0466 49.3031 28.8881C49.2197 28.7297 49.2806 28.5336 49.4389 28.4502L50.3435 27.9716L50.3453 27.9706L50.3463 27.9701C50.4376 27.9221 50.5503 27.9184 50.6484 27.9701L51.4583 28.3986C51.6167 28.482 51.6775 28.6781 51.5941 28.8365C51.5107 28.9949 51.3146 29.0557 51.1562 28.9723L50.936 28.8558ZM46.8411 37.7414C46.8429 37.946 46.8446 38.2105 46.8461 38.4151C46.869 41.3614 46.8694 44.3078 46.869 47.2542L46.8688 48.4856C46.886 48.8574 47.0206 49.2216 47.2646 49.505C47.5214 49.8032 47.8777 49.9863 48.2746 49.9863C48.6715 49.9863 49.0277 49.8032 49.2845 49.505C49.5464 49.2009 49.6823 48.8038 49.6823 48.4041V40.0127L49.7569 39.9648C49.9159 39.8627 50.1002 39.8019 50.2899 39.8019H50.2918C50.4786 39.8019 50.6589 39.8548 50.8141 39.9592L50.8859 40.0075V48.4041C50.8859 48.8038 51.0217 49.2009 51.2836 49.505C51.5404 49.8032 51.8966 49.9863 52.2935 49.9863C52.6904 49.9863 53.0467 49.8032 53.3035 49.505C53.5654 49.2009 53.7012 48.8038 53.7012 48.4041C53.7012 45.4135 53.7009 42.4226 53.7208 39.4321C53.7245 38.8885 53.7286 38.285 53.7334 37.7414H46.8411V37.7414Z" fill="white"/>
<path d="M17.3126 22.2166C17.0674 22.2166 16.8687 22.4154 16.8687 22.6606C16.8687 22.9058 17.0674 23.1046 17.3126 23.1046C17.8169 23.1046 18.3001 23.0181 18.7391 22.8725C19.2213 22.7125 19.6478 22.4796 19.9888 22.2105C20.2646 21.9929 20.4876 21.7491 20.6429 21.4976C20.8134 21.2217 20.9066 20.9338 20.9066 20.6532C20.9066 20.408 20.7078 20.2092 20.4626 20.2092C19.958 20.2092 19.5272 20.3062 19.3354 20.6166C19.2333 20.7819 18.5136 20.6815 18.3193 20.8347C18.0555 21.0429 18.08 21.1666 17.6986 21.2932C17.3514 21.4083 17.7259 22.2166 17.3126 22.2166L17.3126 22.2166Z" fill="white"/>
<path d="M20.2354 21.6602C20.0716 21.8422 20.0864 22.1225 20.2683 22.2862C20.5435 22.5334 20.8766 22.7452 21.2486 22.8912C21.5914 23.0256 21.9664 23.1046 22.3589 23.1046C22.6041 23.1046 22.1863 22.9058 22.1863 22.6606C22.1863 22.4154 22.2188 21.7195 21.9736 21.7195C21.6943 21.7195 21.6826 20.9931 21.4402 20.898C21.1716 20.7927 20.2767 21.6143 20.2354 21.6602L20.2354 21.6602Z" fill="white"/>
<path d="M19.5516 20.0137C18.7386 20.0137 18.0023 20.3433 17.4694 20.8762C16.9366 21.4091 16.6069 22.1453 16.6069 22.9584C16.6069 23.7835 16.9566 24.7233 17.5144 25.4238C18.0382 26.0816 18.7512 26.5428 19.5517 26.5428C20.3521 26.5428 21.0651 26.0816 21.5889 25.4238C22.1467 24.7233 22.4964 23.7835 22.4964 22.9584C22.4964 22.1453 22.1667 21.4091 21.6339 20.8762C21.1009 20.3433 20.3648 20.0137 19.5517 20.0137H19.5516ZM18.0972 21.504C18.4694 21.1318 18.9837 20.9016 19.5516 20.9016C20.1197 20.9016 20.6339 21.1318 21.0061 21.504C21.3782 21.8762 21.6085 22.3904 21.6085 22.9584C21.6085 23.592 21.3336 24.3218 20.8953 24.8723C20.5289 25.3323 20.0548 25.6548 19.5516 25.6548C19.0485 25.6548 18.5744 25.3323 18.208 24.8723C17.7697 24.3218 17.4948 23.592 17.4948 22.9584C17.4948 22.3904 17.7251 21.8762 18.0972 21.504H18.0972Z" fill="white"/>
<path fill-rule="evenodd" clip-rule="evenodd" d="M18.8512 27.1217L18.8496 27.1278L19.0043 27.1689C19.1831 27.2164 19.3666 27.2407 19.5516 27.2407C19.7372 27.2407 19.9213 27.2159 20.1005 27.168C20.2873 27.1181 20.469 27.0493 20.6375 26.954C20.7051 26.9158 20.7813 26.898 20.8585 26.9106C21.1231 26.9537 21.3853 27.0198 21.6365 27.1141C21.8667 27.2006 22.0901 27.3127 22.2918 27.4537C23.0782 28.0031 23.9171 28.2601 24.8698 28.0643C25.6238 27.9093 26.3154 27.5058 26.9747 27.1244C27.4508 26.849 27.9326 26.5843 28.437 26.3637C28.4458 26.3599 28.4548 26.3557 28.4638 26.3524C28.9621 26.1674 29.5157 26.1739 29.9574 26.4949C30.1315 26.6214 30.2712 26.789 30.364 26.9832C30.4573 27.1779 30.4999 27.3925 30.4858 27.6082C30.4502 28.1519 30.0739 28.5708 29.6314 28.8493C28.5875 29.5064 27.5157 30.1957 26.3601 30.6413C25.4482 30.9929 24.4373 31.2234 23.4585 31.0714L23.2763 31.0431L23.2711 31.2274C23.2188 33.0931 23.1882 35.1718 23.1684 37.0384H16.2573C16.2375 35.1544 16.2075 33.0582 16.1583 31.1751L16.1468 30.7342L15.8696 31.0772C15.7294 31.2506 15.6062 31.4374 15.5018 31.6344C15.2312 32.1451 15.0907 32.7165 15.0907 33.2943V36.4552C15.0907 37.0177 14.8574 37.5393 14.3306 37.7872C14.1633 37.866 13.9803 37.9078 13.7953 37.9078C13.6104 37.9078 13.4274 37.866 13.2601 37.7872C12.7333 37.5393 12.5 37.0177 12.5 36.4552V33.2943C12.5 31.6615 13.1112 30.0338 14.207 28.8203C15.2608 27.6532 16.6945 27.0228 18.2562 26.9094C18.3243 26.9045 18.3936 26.9131 18.4543 26.946C18.5816 27.015 18.7142 27.0747 18.8511 27.1217L18.8512 27.1217ZM19.0642 28.8558V34.059L19.5516 34.5464L20.039 34.059V28.9074L20.2591 29.024C20.4175 29.1074 20.6136 29.0466 20.697 28.8881C20.7804 28.7297 20.7196 28.5336 20.5612 28.4502L19.6566 27.9716L19.6548 27.9706L19.6538 27.9701C19.5625 27.9221 19.4499 27.9184 19.3517 27.9701L18.5419 28.3986C18.3835 28.482 18.3227 28.6781 18.4061 28.8365C18.4894 28.9949 18.6855 29.0557 18.844 28.9723L19.0642 28.8558H19.0642ZM23.1591 37.7414C23.1573 37.946 23.1556 38.2105 23.154 38.4151C23.1312 41.3614 23.1307 44.3078 23.1311 47.2542L23.1313 48.4856C23.1142 48.8574 22.9796 49.2216 22.7355 49.505C22.4787 49.8032 22.1225 49.9863 21.7256 49.9863C21.3287 49.9863 20.9724 49.8032 20.7156 49.505C20.4537 49.2009 20.3179 48.8038 20.3179 48.4041V40.0127L20.2433 39.9648C20.0843 39.8627 19.8999 39.8019 19.7102 39.8019H19.7083C19.5215 39.8019 19.3413 39.8548 19.1861 39.9592L19.1142 40.0075V48.4041C19.1142 48.8038 18.9785 49.2009 18.7165 49.505C18.4598 49.8032 18.1035 49.9863 17.7066 49.9863C17.3097 49.9863 16.9534 49.8032 16.6967 49.505C16.4347 49.2009 16.299 48.8038 16.299 48.4041C16.299 45.4135 16.2992 42.4226 16.2793 39.4321C16.2757 38.8885 16.2716 38.285 16.2667 37.7414H23.1591V37.7414Z" fill="white"/>
<path fill-rule="evenodd" clip-rule="evenodd" d="M33.8492 38.2398V32.6671H32.4348V32.6653L32.0014 32.6655C31.9948 32.6655 31.9895 32.6636 31.9843 32.6594C31.9725 32.6498 31.9708 32.6326 31.9805 32.6208C32.0661 32.5155 32.1328 32.3959 32.1782 32.2681C32.2237 32.1396 32.246 32.0043 32.246 31.8681C32.246 31.5511 32.1209 31.2488 31.8967 31.0246C31.6726 30.8005 31.3702 30.6753 31.0532 30.6753C30.7361 30.6753 30.4338 30.8005 30.2097 31.0246C29.9855 31.2488 29.8604 31.5511 29.8604 31.8681C29.8604 32.0043 29.8827 32.1396 29.9282 32.268C29.9712 32.3892 30.0291 32.5032 30.1117 32.6024C30.1175 32.6093 30.1322 32.6289 30.1336 32.6383C30.1336 32.6544 30.1208 32.6671 30.1047 32.6671H28.2572V34.1192H28.2551L28.2553 34.5524C28.2553 34.5594 28.2531 34.565 28.2485 34.5702C28.2384 34.5815 28.2214 34.5824 28.2102 34.5723C28.1018 34.4754 27.9757 34.3998 27.8399 34.348C27.7039 34.2961 27.5596 34.2702 27.414 34.2702C27.097 34.2702 26.7947 34.3954 26.5705 34.6195C26.3464 34.8437 26.2212 35.146 26.2212 35.4631C26.2212 35.7801 26.3464 36.0824 26.5705 36.3066C26.7947 36.5307 27.097 36.6559 27.414 36.6559C27.5596 36.6559 27.7039 36.63 27.8399 36.5781C27.9681 36.5292 28.0881 36.4643 28.1897 36.3711C28.1973 36.3641 28.218 36.3469 28.2287 36.3449C28.2447 36.3449 28.2572 36.3578 28.2572 36.3739V38.2398H29.4783V38.2377L29.7657 38.2378C29.75 38.2044 29.7355 38.1704 29.7223 38.1358C29.6604 37.9736 29.6294 37.8012 29.6294 37.6276C29.6294 37.2494 29.7789 36.8882 30.0464 36.6208C30.3138 36.3533 30.675 36.2038 31.0532 36.2038C31.4314 36.2038 31.7926 36.3533 32.06 36.6208C32.3275 36.8882 32.477 37.2494 32.477 37.6276C32.477 37.8012 32.446 37.9736 32.3841 38.1359C32.3706 38.1712 32.356 38.2058 32.3403 38.2398H33.8492L33.8492 38.2398Z" fill="white"/>
<path fill-rule="evenodd" clip-rule="evenodd" d="M33.6505 38.4708H31.9642C31.9481 38.4708 31.9352 38.4584 31.9352 38.4423C31.9372 38.4317 31.9545 38.4109 31.9614 38.4033C32.0547 38.3017 32.1195 38.1817 32.1685 38.0535C32.2204 37.9175 32.2462 37.7731 32.2462 37.6276C32.2462 37.3106 32.1211 37.0083 31.8969 36.7841C31.6728 36.56 31.3704 36.4348 31.0534 36.4348C30.7364 36.4348 30.434 36.56 30.2099 36.7841C29.9858 37.0083 29.8606 37.3106 29.8606 37.6276C29.8606 37.7731 29.8864 37.9175 29.9384 38.0535C29.9902 38.1893 30.0657 38.3154 30.1627 38.4238C30.1727 38.4351 30.1718 38.452 30.1606 38.462C30.1554 38.4667 30.1497 38.4689 30.1427 38.4689L29.7095 38.4687V38.4708H28.2574V38.5249V40.3183C28.2574 40.3344 28.2448 40.3472 28.2287 40.3472C28.2192 40.3458 28.1996 40.3311 28.1927 40.3253C28.0935 40.2427 27.9795 40.1848 27.8583 40.1419C27.7299 40.0963 27.5946 40.074 27.4584 40.074C27.1415 40.074 26.8391 40.1991 26.615 40.4233C26.3908 40.6474 26.2656 40.9498 26.2656 41.2668C26.2656 41.5838 26.3908 41.8862 26.6149 42.1103C26.8391 42.3344 27.1415 42.4597 27.4584 42.4597C27.5946 42.4597 27.7299 42.4373 27.8583 42.3918C27.9862 42.3464 28.1059 42.2797 28.2112 42.1941C28.223 42.1845 28.2401 42.1861 28.2497 42.1979C28.2539 42.2031 28.2559 42.2084 28.2559 42.215L28.2556 42.6484H28.2574V44.0628H33.6504V42.8794H33.6485L33.6487 42.5745C33.6194 42.5871 33.5897 42.5988 33.5596 42.6094C33.4065 42.6638 33.2449 42.6906 33.0825 42.6906C32.7043 42.6906 32.3431 42.5411 32.0756 42.2737C31.8082 42.0062 31.6587 41.645 31.6587 41.2668C31.6587 40.8885 31.8082 40.5274 32.0757 40.26C32.3431 39.9925 32.7043 39.843 33.0825 39.843C33.2449 39.843 33.4064 39.8698 33.5595 39.9241C33.5903 39.935 33.6206 39.9467 33.6504 39.9594V38.4708L33.6505 38.4708Z" fill="white"/>
<path fill-rule="evenodd" clip-rule="evenodd" d="M39.4735 44.0628V38.4708H37.5882C37.5721 38.4708 37.5593 38.4584 37.5593 38.4423C37.5613 38.4316 37.5785 38.4109 37.5855 38.4033C37.6787 38.3017 37.7436 38.1817 37.7925 38.0535C37.8444 37.9175 37.8702 37.7731 37.8702 37.6276C37.8702 37.3106 37.7451 37.0083 37.5209 36.7841C37.2968 36.56 36.9944 36.4348 36.6774 36.4348C36.3604 36.4348 36.0581 36.56 35.8339 36.7841C35.6098 37.0083 35.4846 37.3106 35.4846 37.6276C35.4846 37.7731 35.5105 37.9175 35.5624 38.0535C35.6142 38.1893 35.6897 38.3154 35.7867 38.4238C35.7967 38.4351 35.7958 38.452 35.7846 38.462C35.7794 38.4667 35.7738 38.4689 35.7668 38.4689L35.3335 38.4687V38.4708H33.8814V40.3183C33.8814 40.3344 33.8688 40.3472 33.8527 40.3472C33.8432 40.3458 33.8237 40.3311 33.8167 40.3253C33.7175 40.2427 33.6034 40.1847 33.4823 40.1418C33.354 40.0963 33.2186 40.074 33.0825 40.074C32.7655 40.074 32.4631 40.1991 32.239 40.4233C32.0148 40.6474 31.8896 40.9498 31.8896 41.2668C31.8896 41.5838 32.0148 41.8862 32.239 42.1103C32.4631 42.3344 32.7655 42.4597 33.0825 42.4597C33.2186 42.4597 33.354 42.4373 33.4824 42.3918C33.6102 42.3464 33.7299 42.2797 33.8352 42.1941C33.847 42.1845 33.8641 42.1861 33.8738 42.198C33.8779 42.2031 33.8799 42.2084 33.8799 42.2151L33.8796 42.6484H33.8814V44.0628H39.4735L39.4735 44.0628Z" fill="white"/>
</svg>
