<svg width="70" height="70" viewBox="0 0 70 70" fill="none" xmlns="http://www.w3.org/2000/svg">
<rect width="70" height="70" rx="35" fill="#3E468F"/>
<path d="M45.1599 43.1721L48.0281 56.3651C48.1373 56.8707 47.816 57.3691 47.3103 57.4784C47.0549 57.5335 46.8013 57.4788 46.5988 57.3459L34.9996 50.5798L23.3553 57.3722C22.9084 57.631 22.3361 57.4786 22.0772 57.0316C21.9559 56.822 21.925 56.5848 21.9724 56.3654L21.971 56.3651L24.8391 43.1716C25.1567 43.662 25.5543 44.0837 26.1027 44.4049C26.1373 44.4251 26.1723 44.4448 26.2075 44.464C27.2911 45.0514 28.3722 44.9518 29.5455 44.8043L29.667 44.789C29.9909 44.7547 30.5455 44.6899 30.7165 44.7369C30.9496 44.801 31.4864 45.2249 31.6885 45.3778C32.7048 46.1464 33.6625 46.8163 34.9996 46.8163C36.3367 46.8163 37.2945 46.1464 38.3107 45.3778C38.5129 45.225 39.0498 44.801 39.2827 44.7369C39.5163 44.6727 40.2019 44.7726 40.4537 44.8043L41.3845 44.9213L41.3875 44.8974C42.2118 44.9524 43.0026 44.8909 43.7907 44.4645C43.8264 44.4452 43.8617 44.4252 43.8967 44.4048C44.4448 44.0837 44.8424 43.6622 45.1599 43.172V43.1721Z" fill="white"/>
<path fill-rule="evenodd" clip-rule="evenodd" d="M26.5766 14.7832C25.6818 15.3073 25.3139 16.2243 24.947 17.1389C24.7382 17.6594 24.5297 18.179 24.2595 18.4492C23.9893 18.7194 23.4697 18.9279 22.9492 19.1367C22.0347 19.5036 21.1176 19.8715 20.5935 20.7663C20.0722 21.6562 20.1952 22.6347 20.3189 23.6185C20.3909 24.1911 20.4632 24.7663 20.3563 25.155C20.2547 25.5243 19.9088 25.9816 19.5593 26.4439C18.9393 27.2636 18.3105 28.095 18.3105 29.1895C18.3105 30.284 18.9393 31.1154 19.5592 31.9351C19.9088 32.3973 20.2548 32.8547 20.3563 33.224C20.4632 33.6127 20.3909 34.1879 20.3189 34.7606C20.1952 35.7443 20.0722 36.7228 20.5935 37.6127C21.1176 38.5075 22.0346 38.8754 22.9492 39.2423C23.4697 39.4511 23.9893 39.6596 24.2595 39.9298C24.5298 40.2 24.7382 40.7196 24.947 41.2401C25.0139 41.4069 25.0808 41.5736 25.1509 41.7381C25.4656 42.4759 25.8449 43.1673 26.5766 43.5959C26.6025 43.611 26.6285 43.6257 26.6545 43.6398C27.5282 44.1131 28.476 43.9939 29.4288 43.8741L29.4284 43.8705L29.4288 43.8705C30.0014 43.7985 30.5766 43.7261 30.9653 43.833C31.3346 43.9346 31.792 44.2805 32.2542 44.6301C33.0739 45.25 33.9053 45.8788 34.9998 45.8788C36.0944 45.8788 36.9257 45.25 37.7455 44.6301C38.2077 44.2805 38.6651 43.9346 39.0344 43.833C39.4139 43.7287 39.9937 43.8015 40.5709 43.8741L40.5713 43.8705C41.5262 43.9906 42.4761 44.1099 43.3449 43.6399C43.371 43.6258 43.3971 43.6111 43.4231 43.5959C44.1546 43.1674 44.534 42.4763 44.8486 41.7386C44.9188 41.574 44.9857 41.407 45.0527 41.2401C45.2615 40.7196 45.4699 40.2 45.7402 39.9298C46.0104 39.6596 46.5299 39.4511 47.0505 39.2423C47.965 38.8754 48.8821 38.5075 49.4062 37.6127C49.9275 36.7228 49.8045 35.7443 49.6808 34.7606C49.6088 34.188 49.5364 33.6127 49.6434 33.224C49.7449 32.8547 50.0909 32.3974 50.4404 31.9351C51.0604 31.1154 51.6891 30.284 51.6891 29.1895C51.6891 28.095 51.0603 27.2636 50.4404 26.4439C50.0908 25.9816 49.7449 25.5243 49.6434 25.155C49.5364 24.7663 49.6088 24.1911 49.6808 23.6185C49.8045 22.6347 49.9275 21.6561 49.4062 20.7663C48.882 19.8715 47.965 19.5036 47.0505 19.1367C46.5299 18.9279 46.0103 18.7194 45.7401 18.4492C45.4699 18.179 45.2615 17.6594 45.0526 17.1389C44.6857 16.2243 44.3179 15.3073 43.423 14.7831C42.5279 14.2588 41.552 14.3816 40.5709 14.5049L40.5713 14.5085L40.5709 14.5085C39.9983 14.5806 39.423 14.6529 39.0343 14.546C38.6651 14.4444 38.2077 14.0985 37.7455 13.749C36.9257 13.129 36.0944 12.5002 34.9998 12.5002C33.9053 12.5002 33.074 13.129 32.2542 13.749C31.7919 14.0985 31.3346 14.4444 30.9653 14.546C30.5858 14.6504 30.006 14.5775 29.4288 14.5049L29.4284 14.5085C28.4448 14.3848 27.4664 14.2619 26.5766 14.7832L26.5766 14.7832ZM34.9998 18.8466C37.8558 18.8466 40.4416 20.0043 42.3133 21.8761C44.185 23.7477 45.3427 26.3335 45.3427 29.1895C45.3427 32.0455 44.185 34.6313 42.3133 36.5029C40.4416 38.3747 37.8558 39.5324 34.9998 39.5324C32.1438 39.5324 29.558 38.3747 27.6864 36.5029C25.8146 34.6313 24.6569 32.0455 24.6569 29.1895C24.6569 26.3335 25.8146 23.7477 27.6864 21.8761C29.558 20.0043 32.1438 18.8466 34.9998 18.8466Z" fill="white"/>
<path d="M29.3861 27.6207L27.6865 29.3203L33.0416 34.6754L34.7412 32.9758L29.3861 27.6207Z" fill="white"/>
<path d="M42.3134 25.4035L40.6138 23.7039L31.3419 32.9757L33.0415 34.6753L42.3134 25.4035Z" fill="white"/>
</svg>
