<svg width="90" height="90" viewBox="0 0 90 90" fill="none" xmlns="http://www.w3.org/2000/svg">
<rect width="90" height="90" rx="45" fill="#3E468F"/>
<path d="M30.5187 27.5664C30.9216 27.5664 31.2866 27.7299 31.5507 27.994C31.8148 28.2581 31.9782 28.623 31.9782 29.026C31.9782 29.429 31.8148 29.7939 31.5507 30.058C31.2866 30.3221 30.9216 30.4856 30.5187 30.4856C30.1157 30.4856 29.7507 30.3221 29.4866 30.058C29.2225 29.7939 29.0591 29.429 29.0591 29.026C29.0591 28.623 29.2225 28.2581 29.4866 27.994C29.7507 27.7299 30.1157 27.5664 30.5187 27.5664Z" fill="white"/>
<path d="M55.1693 27.9939C55.4334 27.7298 55.7983 27.5663 56.2013 27.5663C56.6043 27.5663 56.9692 27.7298 57.2333 27.9939C57.4974 28.258 57.6609 28.6229 57.6609 29.0259C57.6609 29.4289 57.4974 29.7938 57.2333 30.058C56.9692 30.3221 56.6043 30.4855 56.2013 30.4855C55.7983 30.4855 55.4334 30.3221 55.1693 30.058C54.9052 29.7938 54.7417 29.4289 54.7417 29.0259C54.7417 28.623 54.9052 28.258 55.1693 27.9939Z" fill="white"/>
<path d="M35.7053 24.4662C36.4289 24.4662 37.0842 24.7596 37.5585 25.2339C38.0327 25.7081 38.3262 26.3634 38.3262 27.087C38.3262 27.8107 38.0327 28.4659 37.5585 28.9401C37.0842 29.4144 36.4289 29.7078 35.7053 29.7078C34.9817 29.7078 34.3264 29.4144 33.8522 28.9401C33.3779 28.4659 33.0845 27.8107 33.0845 27.087C33.0845 26.3634 33.3779 25.7081 33.8522 25.2339C34.3264 24.7596 34.9817 24.4662 35.7053 24.4662Z" fill="white"/>
<path d="M49.1617 25.2339C49.636 24.7596 50.2913 24.4662 51.0149 24.4662C51.7385 24.4662 52.3938 24.7596 52.868 25.2339C53.3423 25.7081 53.6357 26.3634 53.6357 27.0871C53.6357 27.8107 53.3423 28.4659 52.868 28.9402C52.3938 29.4144 51.7385 29.7079 51.0149 29.7079C50.2913 29.7079 49.636 29.4144 49.1617 28.9402C48.6875 28.4659 48.394 27.8107 48.394 27.0871C48.394 26.3634 48.6875 25.7081 49.1617 25.2339Z" fill="white"/>
<path d="M43.3597 21.0625C44.4039 21.0625 45.3496 21.4859 46.034 22.1703C46.7184 22.8548 47.1418 23.8003 47.1418 24.8446C47.1418 25.8888 46.7184 26.8345 46.034 27.5189C45.3496 28.2033 44.4039 28.6267 43.3597 28.6267C42.3155 28.6267 41.3698 28.2033 40.6854 27.5189C40.001 26.8345 39.5776 25.8888 39.5776 24.8446C39.5776 23.8003 40.001 22.8548 40.6854 22.1703C41.3698 21.4859 42.3155 21.0625 43.3597 21.0625Z" fill="white"/>
<path d="M65.7923 37.2554C66.3141 37.2554 66.7372 37.6785 66.7372 38.2003C66.7372 38.7222 66.3141 39.1453 65.7923 39.1453C64.7189 39.1453 63.6904 38.9613 62.7559 38.6513C61.7297 38.3108 60.8217 37.8151 60.0961 37.2424C59.509 36.779 59.0343 36.2602 58.7037 35.725C58.3408 35.1377 58.1426 34.5249 58.1426 33.9276C58.1426 33.4058 58.5657 32.9827 59.0875 32.9827C60.1616 32.9827 61.0786 33.189 61.4868 33.8498C61.7041 34.2016 63.236 33.9877 63.6495 34.3141C64.211 34.7573 64.159 35.0205 64.9707 35.2898C65.7097 35.5349 64.9126 37.2554 65.7923 37.2554L65.7923 37.2554Z" fill="white"/>
<path d="M59.5718 36.0711C59.9204 36.4584 59.889 37.055 59.5016 37.4036C58.9159 37.9297 58.207 38.3804 57.4151 38.6911C56.6855 38.9773 55.8873 39.1453 55.0518 39.1453C54.53 39.1453 55.4193 38.7222 55.4193 38.2003C55.4193 37.6785 55.3502 36.1972 55.872 36.1972C56.4665 36.1972 56.4913 34.6511 57.0074 34.4487C57.579 34.2245 59.4838 35.9734 59.5718 36.0711L59.5718 36.0711Z" fill="white"/>
<path d="M61.0265 32.5662C62.7572 32.5662 64.3243 33.2678 65.4585 34.4021C66.5927 35.5363 67.2944 37.1033 67.2944 38.834C67.2944 40.5901 66.5502 42.5906 65.3629 44.0815C64.248 45.4817 62.7303 46.4632 61.0265 46.4632C59.3228 46.4632 57.8052 45.4817 56.6902 44.0815C55.503 42.5906 54.7588 40.5901 54.7588 38.834C54.7588 37.1033 55.4604 35.5363 56.5946 34.4021C57.7289 33.2678 59.2959 32.5662 61.0265 32.5662ZM64.1223 35.7383C63.3301 34.9461 62.2355 34.4561 61.0265 34.4561C59.8176 34.4561 58.723 34.9461 57.9309 35.7383C57.1388 36.5305 56.6487 37.625 56.6487 38.834C56.6487 40.1826 57.2336 41.7359 58.1667 42.9076C58.9465 43.8869 59.9557 44.5733 61.0265 44.5733C62.0974 44.5733 63.1067 43.8869 63.8864 42.9076C64.8195 41.7359 65.4045 40.1826 65.4045 38.834C65.4045 37.625 64.9144 36.5305 64.1222 35.7383H64.1223Z" fill="white"/>
<path fill-rule="evenodd" clip-rule="evenodd" d="M63.4076 47.053L63.3772 47.1072C63.3521 47.1519 63.3328 47.1997 63.3193 47.2492C62.8628 48.9193 63.3952 48.8182 61.0749 48.8182C58.7611 48.8182 59.1856 48.93 58.7349 47.2591C58.6762 47.0414 58.511 46.8691 58.292 46.8092C57.2931 46.5356 55.7752 47.3023 54.9379 47.793C54.5762 48.005 54.2227 48.232 53.8765 48.4684C53.2414 48.9022 52.6227 49.3715 52.0344 49.8668C51.6311 50.2063 51.1803 50.5983 50.837 50.999C50.0768 51.8862 49.4592 52.8808 49.0396 53.9731C48.6546 54.9754 48.4501 56.0205 48.4282 57.0913L48.4286 57.2834C48.4286 57.3221 48.432 57.3608 48.4392 57.3988L49.5549 63.2826C49.6452 63.7583 49.7705 64.3138 50.1071 64.6815C50.4647 65.0723 50.9528 65.3041 51.4855 65.3041C52.018 65.3041 52.5061 65.0722 52.8638 64.6815C53.1973 64.3171 53.3879 63.8443 53.4097 63.353L53.4096 63.2581C53.4095 63.2194 53.4061 63.1807 53.3989 63.1427L52.2792 57.2381L52.2797 57.2063C52.2912 56.361 52.4938 55.5488 52.9479 54.8306C53.0784 54.6241 53.2269 54.4294 53.39 54.2476L53.9158 53.6619L53.9393 54.4486C53.9855 55.9995 54.2942 57.5356 54.5948 59.0533C55.1368 61.7894 55.5967 64.347 55.0495 67.1371C54.9828 67.4775 55.2061 67.8083 55.5464 67.8747C55.704 67.9012 55.9535 67.8972 56.1176 67.9015C56.5386 67.9129 56.9601 67.9182 57.3812 67.9227C58.5879 67.9357 59.7951 67.9381 61.0018 67.9374C62.215 67.9368 63.4284 67.9326 64.6415 67.9201C65.0628 67.9157 65.4843 67.9108 65.9055 67.9012C66.0752 67.8974 66.3072 67.9024 66.4731 67.8794C66.8163 67.8306 67.056 67.5127 67.0066 67.1692C66.5788 64.1888 67.0107 61.4113 67.5273 58.4843C67.7639 57.1438 68.0171 55.7709 68.0824 54.4099L68.1186 53.6549L68.6292 54.2121C68.805 54.404 68.9644 54.6105 69.1035 54.8306C69.5735 55.574 69.8477 56.3856 69.771 57.2743L69.2753 63.0119C69.2732 63.0364 69.271 63.0614 69.271 63.0859C69.271 63.6112 69.464 64.1219 69.8191 64.5099C70.1768 64.9006 70.6649 65.1325 71.1975 65.1325C71.7301 65.1325 72.2182 64.9006 72.5758 64.5099C72.9249 64.1285 73.0809 63.6084 73.1247 63.1025L73.6209 57.358C73.6231 57.3335 73.6252 57.3085 73.6252 57.2839C73.6252 56.1458 73.4199 55.0354 73.0118 53.9731C72.5923 52.8808 71.9746 51.8862 71.2145 50.999C71.0938 50.8581 70.9369 50.7199 70.7978 50.5975C70.5627 50.3907 70.319 50.1919 70.0735 49.9977C69.4347 49.492 68.7717 49.0087 68.0986 48.5499C67.5331 48.1645 66.9522 47.7903 66.356 47.454C65.9146 47.2051 65.4235 46.947 64.9426 46.7851C64.5041 46.6374 63.9517 46.544 63.5682 46.8724C63.5061 46.9256 63.4523 46.9856 63.4076 47.053L63.4076 47.053Z" fill="white"/>
<path d="M64.3711 47.7551C64.7197 48.1404 64.6899 48.7354 64.3047 49.084C64.0556 49.3093 63.7189 49.3765 63.4177 49.2918H58.6355C58.4688 49.3387 58.2913 49.339 58.1237 49.2918H58.1234V49.2917C57.9883 49.2535 57.8597 49.1846 57.7486 49.084C57.3633 48.7354 57.3335 48.1404 57.6821 47.7551C57.6837 47.7534 58.2551 47.139 58.4695 45.7231C58.547 45.2073 59.0279 44.852 59.5437 44.9294H62.5096C63.0253 44.852 63.5063 45.2073 63.5837 45.7231C63.7981 47.139 64.3695 47.7534 64.3711 47.7551H64.3711Z" fill="white"/>
<path fill-rule="evenodd" clip-rule="evenodd" d="M31.8643 47.7361L31.835 47.7886C31.8107 47.8318 31.7921 47.8781 31.779 47.9259C31.3374 49.5414 31.8524 51.8811 29.608 51.8811C27.3699 51.8811 27.7805 49.5518 27.3445 47.9355C27.2877 47.7249 27.128 47.5583 26.9161 47.5003C25.9499 47.2357 24.4816 47.9773 23.6717 48.4519C23.3218 48.657 22.9799 48.8766 22.6451 49.1053C22.0308 49.5248 21.4323 49.9788 20.8632 50.4579C20.4731 50.7863 20.037 51.1655 19.705 51.553C18.9696 52.4113 18.3722 53.3733 17.9664 54.4298C17.5939 55.3994 17.3962 56.4103 17.375 57.4461L17.3753 57.6319C17.3753 57.6693 17.3786 57.7068 17.3856 57.7435L18.4648 63.4349C18.5521 63.895 18.6734 64.4323 18.9989 64.788C19.3449 65.166 19.817 65.3903 20.3322 65.3903C20.8474 65.3903 21.3195 65.1659 21.6654 64.788C21.9881 64.4354 22.1724 63.9782 22.1935 63.5029L22.1934 63.4111C22.1933 63.3737 22.19 63.3363 22.1831 63.2996L21.1 57.5881L21.1004 57.5573C21.1116 56.7397 21.3076 55.9541 21.7468 55.2593C21.8731 55.0596 22.0166 54.8712 22.1745 54.6954L22.683 54.1288L22.7057 54.8898C22.7504 56.39 23.049 57.8759 23.3398 59.3439C23.8641 61.9905 24.309 64.4645 23.7796 67.1633C23.7151 67.4926 23.9311 67.8125 24.2603 67.8767C24.4127 67.9024 24.6541 67.8985 24.8128 67.9027C25.2201 67.9137 25.6278 67.9188 26.0351 67.9232C27.2023 67.9357 28.37 67.9381 29.5373 67.9374C30.7107 67.9368 31.8845 67.9328 33.0579 67.9207C33.4654 67.9164 33.8731 67.9116 34.2806 67.9024C34.4447 67.8987 34.6691 67.9035 34.8296 67.8813C35.1616 67.834 35.3934 67.5265 35.3457 67.1943C34.9319 64.3114 35.3496 61.6247 35.8493 58.7936C36.0782 57.4968 36.3231 56.1689 36.3862 54.8524L36.4212 54.122L36.9152 54.6611C37.0853 54.8467 37.2394 55.0464 37.3739 55.2593C37.8285 55.9784 38.0938 56.7634 38.0196 57.623L37.5401 63.173C37.538 63.1967 37.536 63.2208 37.536 63.2446C37.536 63.7526 37.7227 64.2467 38.0662 64.622C38.4121 64.9999 38.8843 65.2243 39.3994 65.2243C39.9146 65.2243 40.3867 64.9999 40.7327 64.622C41.0703 64.2531 41.2213 63.75 41.2635 63.2606L41.7436 57.7041C41.7457 57.6804 41.7477 57.6562 41.7477 57.6324C41.7477 56.5315 41.5492 55.4574 41.1544 54.4298C40.7486 53.3733 40.1511 52.4112 39.4158 51.553C39.2991 51.4168 39.1474 51.283 39.0128 51.1646C38.7854 50.9646 38.5496 50.7724 38.3122 50.5844C37.6943 50.0954 37.053 49.6278 36.4019 49.1841C35.8549 48.8113 35.293 48.4493 34.7163 48.124C34.2894 47.8833 33.8143 47.6336 33.3491 47.4769C32.925 47.3341 32.3907 47.2438 32.0197 47.5615C31.9597 47.6129 31.9076 47.6709 31.8643 47.7361L31.8643 47.7361Z" fill="white"/>
<path fill-rule="evenodd" clip-rule="evenodd" d="M36.3949 40.9421C36.3949 36.9671 34.6502 34.4054 32.4146 33.2631C31.5218 32.807 30.5527 32.5798 29.5836 32.5808C28.6093 32.5818 27.6394 32.8096 26.7504 33.2632C24.5026 34.4103 22.7442 36.9806 22.7442 40.9421C22.7442 42.1839 22.9667 43.0171 23.1666 43.7656C23.3826 44.5742 23.5654 45.2588 23.2425 46.3638C23.197 46.5194 22.9444 47.0517 22.6543 47.6433C22.787 47.5605 22.9208 47.4795 23.0558 47.4004C24.2179 46.7194 25.8771 45.9521 27.2382 46.3248C27.8668 46.4969 28.3519 46.9898 28.5214 47.6181C28.6423 48.0662 28.7048 48.5266 28.7644 48.9862C28.8095 49.3339 28.9075 50.2784 29.1431 50.5447C29.24 50.6542 29.4787 50.6623 29.6082 50.6623C29.7105 50.6623 29.958 50.6557 30.0363 50.5649C30.2515 50.3155 30.3318 49.3275 30.3678 49.0009C30.4198 48.5313 30.4787 48.0611 30.6036 47.6044C30.668 47.369 30.6488 47.4125 30.772 47.1926L30.8014 47.1402C30.912 46.9429 31.0562 46.7822 31.2273 46.6357C31.9504 46.0165 32.8811 46.0333 33.7383 46.3219C34.2876 46.5069 34.8112 46.7782 35.3152 47.0625C35.7137 47.2873 36.1036 47.5272 36.4873 47.7764L36.3769 47.5267C36.1508 47.0137 35.9649 46.5787 35.9259 46.4521C35.5647 45.2812 35.7511 44.586 35.9723 43.7607C36.1722 43.015 36.3949 42.1848 36.3949 40.9421L36.3949 40.9421ZM28.0077 37.3077C26.2052 34.9877 26.9536 35.5754 29.287 36.7104C29.315 36.7282 29.3419 36.7473 29.3674 36.7677C29.7241 37.0159 30.1335 37.2295 30.5647 37.413C31.4541 37.7918 32.4316 38.0378 33.2598 38.1996C33.5901 38.2463 33.8825 38.473 33.9968 38.8104C34.2502 39.5507 34.2594 40.3056 34.1365 41.0398C34.0233 41.7161 33.7985 42.3648 33.5577 42.9602C33.1959 43.8551 32.7302 44.718 32.133 45.3719C31.4494 46.1205 30.607 46.6038 29.5695 46.6038C29.5494 46.6038 29.4967 46.6016 29.4102 46.5973C28.1385 46.5345 26.9767 45.7404 26.1527 44.5066C25.39 43.3646 24.904 41.8282 24.904 40.1682C24.904 40.061 24.9083 39.92 24.917 39.7439C24.9351 39.3585 25.1901 39.0403 25.5346 38.9234C25.5961 38.8954 25.6617 38.8738 25.7307 38.8598C26.113 38.7813 26.6067 38.5375 27.0627 38.1785C27.2582 38.0246 27.8503 37.493 28.0077 37.3077H28.0077Z" fill="white"/>
</svg>
