<svg width="90" height="90" viewBox="0 0 90 90" fill="none" xmlns="http://www.w3.org/2000/svg">
<rect width="90" height="90" rx="45" fill="#3E468F"/>
<path fill-rule="evenodd" clip-rule="evenodd" d="M22.2687 38.0665C22.2687 37.1018 22.3413 34.7306 22.4804 32.6723C22.5764 31.2525 22.7096 29.9659 22.8833 29.3405C23.9764 25.4064 26.4509 22.2563 29.7079 20.0468C33.1141 17.7361 37.379 16.461 41.8001 16.4066C44.3221 16.3757 46.7312 16.774 48.959 17.533C51.2775 18.3228 53.4054 19.503 55.2655 20.9963C56.5559 22.0322 57.7754 23.4878 58.8048 25.2098C59.7949 26.8659 60.6145 28.773 61.1553 30.7911C62.1506 34.5057 62.4678 37.7375 61.9406 41.3572C61.8753 41.8052 61.7971 42.2584 61.7055 42.7187L54.2866 40.0515V39.7999C54.2866 38.5091 53.2394 37.4619 51.9486 37.4619C51.1345 37.4619 50.4173 37.8784 49.9986 38.51L37.9359 34.1733C36.8925 33.7982 35.7558 34.2145 35.1825 35.1108C35.0534 35.296 34.9533 35.5057 34.8906 35.735L30.462 51.9148C29.7773 52.2456 29.3046 52.9468 29.3046 53.7579C29.3046 55.7677 30.0969 57.6799 31.5178 59.1008C32.9387 60.5215 34.8508 61.3139 36.8606 61.3139C38.8703 61.3139 40.7826 60.5216 42.2034 59.1007C43.6242 57.6799 44.4166 55.7677 44.4166 53.7579C44.4166 52.9468 43.9439 52.2455 43.2591 51.9147L39.9594 39.8593L49.6106 43.329V67.1296L42.2641 72.5112H35.1299C34.4843 72.5112 33.9609 71.9878 33.9609 71.3422C33.9609 69.8614 34.08 68.5663 34.1789 67.4902C34.2413 66.8108 34.2948 66.2297 34.2948 65.7053C34.2948 64.8355 33.9105 64.4757 32.1195 64.4757C31.2683 64.4757 30.6175 64.494 29.9747 64.5121C26.4071 64.6126 23.0373 64.7074 21.6777 62.3582L21.6757 62.3594C21.2973 61.7042 21.2251 59.9279 21.3134 57.8883C21.3982 55.9267 21.6087 53.6355 21.8189 51.9635C19.8019 51.9607 18.8106 51.9556 17.6591 50.6219C17.4286 50.3555 17.3402 50.0145 17.3872 49.6912C17.709 47.0848 22.2687 39.5334 22.2687 38.0665L22.2687 38.0665ZM60.4682 47.2324C59.7844 49.2443 58.8866 51.4403 57.7558 53.9189C56.9442 55.6978 56.1854 57.8647 55.6245 60.6762C55.2361 62.6224 54.9458 64.872 54.8023 67.5074L54.2866 67.1297V45.0101L60.4682 47.2324L60.4682 47.2324ZM34.752 51.7123H38.9693L36.8607 44.0083L34.752 51.7123Z" fill="white"/>
<path d="M50.7798 39.7998C50.7798 39.1542 51.3032 38.6308 51.9488 38.6308C52.5944 38.6308 53.1178 39.1542 53.1178 39.7998V71.4261C53.1178 72.0717 52.5944 72.5951 51.9488 72.5951C51.3032 72.5951 50.7798 72.0717 50.7798 71.4261V39.7998Z" fill="white"/>
<path d="M67.1424 45.9155C67.7476 46.1323 68.0624 46.7988 67.8456 47.4041C67.6287 48.0094 66.9622 48.3242 66.3569 48.1073L36.7551 37.4652C36.1499 37.2483 35.8351 36.5818 36.0519 35.9765C36.2688 35.3713 36.9353 35.0565 37.5406 35.2734L67.1424 45.9155Z" fill="white"/>
<path d="M66.3954 47.1608C66.5222 46.6955 67.0021 46.4211 67.4673 46.5478C67.9326 46.6745 68.2071 47.1545 68.0804 47.6197L63.312 65.041C63.1853 65.5062 62.7054 65.7807 62.2401 65.654C61.7749 65.5273 61.5004 65.0473 61.6271 64.582L66.3954 47.1608Z" fill="white"/>
<path d="M66.3957 47.6198C66.2689 47.1546 66.5434 46.6746 67.0087 46.5478C67.4739 46.4212 67.9539 46.6956 68.0806 47.1609L72.849 64.5821C72.9757 65.0474 72.7012 65.5273 72.2359 65.6541C71.7707 65.7808 71.2907 65.5063 71.164 65.041L66.3957 47.6198Z" fill="white"/>
<path d="M67.2381 63.9986H72.7483C73.2325 63.9986 73.6251 64.3911 73.6251 64.8753C73.6251 66.6389 72.9101 68.2357 71.7543 69.3915C70.5985 70.5473 69.0017 71.2623 67.2381 71.2623C65.4745 71.2623 63.8776 70.5473 62.7219 69.3915C61.566 68.2357 60.8511 66.6389 60.8511 64.8753C60.8511 64.3911 61.2436 63.9986 61.7278 63.9986H67.2381Z" fill="white"/>
<path d="M36.0182 36.5024C35.8915 36.0371 36.166 35.5572 36.6312 35.4305C37.0965 35.3037 37.5765 35.5782 37.7031 36.0435L42.4715 53.4647C42.5982 53.93 42.3237 54.4099 41.8585 54.5367C41.3933 54.6634 40.9133 54.3889 40.7865 53.9236L36.0182 36.5024V36.5024Z" fill="white"/>
<path d="M36.8606 52.8811H42.3709C42.8551 52.8811 43.2476 53.2737 43.2476 53.7579C43.2476 55.5215 42.5327 57.1183 41.3769 58.2741C40.2211 59.43 38.6243 60.1449 36.8606 60.1449C35.097 60.1449 33.5002 59.4299 32.3444 58.2741C31.1885 57.1183 30.4736 55.5215 30.4736 53.7579C30.4736 53.2737 30.8662 52.8811 31.3504 52.8811H36.8606H36.8606Z" fill="white"/>
<path fill-rule="evenodd" clip-rule="evenodd" d="M59.7692 72.5949H44.1279L51.9487 66.866L59.7692 72.5949Z" fill="white"/>
<path d="M37.7029 36.5024C37.8297 36.0371 37.5552 35.5572 37.0899 35.4305C36.6247 35.3037 36.1447 35.5782 36.018 36.0435L31.2497 53.4647C31.1229 53.93 31.3974 54.4099 31.8627 54.5367C32.3279 54.6634 32.8079 54.3889 32.9346 53.9236L37.7029 36.5024V36.5024Z" fill="white"/>
</svg>
